<svg width="33" height="32" viewBox="0 0 33 32" fill="none" xmlns="http://www.w3.org/2000/svg">
<path d="M15.167 10.6667V14.6667H11.167V17.3334H15.167V21.3334H17.8337V17.3334H21.8337V14.6667H17.8337V10.6667H15.167ZM17.8337 2.7334V6.7734C22.3537 7.42673 25.8337 11.2934 25.8337 16.0001C25.8337 17.2001 25.5937 18.3334 25.1937 19.3867L28.6603 21.4267C29.407 19.7734 29.8337 17.9334 29.8337 16.0001C29.8337 9.0934 24.567 3.40007 17.8337 2.7334ZM16.5003 25.3334C11.3403 25.3334 7.16699 21.1601 7.16699 16.0001C7.16699 11.2934 10.647 7.42673 15.167 6.7734V2.7334C8.42033 3.40007 3.16699 9.08006 3.16699 16.0001C3.16699 23.3601 9.12699 29.3334 16.487 29.3334C20.9003 29.3334 24.807 27.1867 27.2337 23.8801L23.767 21.8401C22.8972 22.9321 21.7918 23.8136 20.5335 24.4185C19.2752 25.0234 17.8965 25.3361 16.5003 25.3334Z" fill="#FF6620"/>
</svg>
