<svg width="33" height="32" viewBox="0 0 33 32" fill="none" xmlns="http://www.w3.org/2000/svg">
<path fill-rule="evenodd" clip-rule="evenodd" d="M23.8909 6.27207C23.4887 5.30144 22.8993 4.41954 22.1562 3.67673L23.0996 2.7334C23.9663 3.60008 24.6538 4.62898 25.1228 5.76135C25.5918 6.89372 25.8333 8.10739 25.8333 9.33307C25.8333 10.5587 25.5918 11.7724 25.1228 12.9048C24.6538 14.0372 23.9663 15.0661 23.0996 15.9327L22.1562 14.9894C23.2751 13.8707 24.0371 12.4453 24.3458 10.8935C24.6546 9.34171 24.4963 7.73321 23.8909 6.2714V6.27207Z" fill="#FF6620"/>
<path fill-rule="evenodd" clip-rule="evenodd" d="M20.1949 7.80268C19.994 7.3173 19.6995 6.87624 19.3282 6.50468L20.2709 5.56201C20.7662 6.05726 21.159 6.64522 21.4271 7.2923C21.6951 7.93939 21.8331 8.63294 21.8331 9.33334C21.8331 10.0338 21.6951 10.7273 21.4271 11.3744C21.159 12.0215 20.7662 12.6094 20.2709 13.1047L19.3282 12.162C19.8876 11.6025 20.2685 10.8898 20.4228 10.1138C20.577 9.33784 20.4977 8.53356 20.1949 7.80268ZM13.6709 6.50468C13.2994 6.87612 13.0047 7.31711 12.8036 7.80245C12.6025 8.2878 12.4991 8.808 12.4991 9.33334C12.4991 9.85869 12.6025 10.3789 12.8036 10.8642C13.0047 11.3496 13.2994 11.7906 13.6709 12.162L12.7282 13.1047C12.2329 12.6094 11.8401 12.0215 11.572 11.3744C11.304 10.7273 11.166 10.0338 11.166 9.33334C11.166 8.63294 11.304 7.93939 11.572 7.2923C11.8401 6.64522 12.2329 6.05726 12.7282 5.56201L13.6709 6.50468Z" fill="#FF6620"/>
<path fill-rule="evenodd" clip-rule="evenodd" d="M10.8434 3.67673C9.34318 5.17701 8.5004 7.21176 8.5004 9.3334C8.5004 11.455 9.34318 13.4898 10.8434 14.9901L9.90002 15.9334C9.03324 15.0667 8.34567 14.0378 7.87656 12.9053C7.40746 11.7729 7.16602 10.5591 7.16602 9.3334C7.16602 8.10765 7.40746 6.8939 7.87656 5.76147C8.34567 4.62903 9.03324 3.60009 9.90002 2.7334L10.8434 3.67673Z" fill="#FF6620"/>
<path d="M17.8337 9.33333C17.8337 9.68696 17.6932 10.0261 17.4431 10.2761C17.1931 10.5262 16.8539 10.6667 16.5003 10.6667C16.1467 10.6667 15.8076 10.5262 15.5575 10.2761C15.3075 10.0261 15.167 9.68696 15.167 9.33333C15.167 8.97971 15.3075 8.64057 15.5575 8.39052C15.8076 8.14048 16.1467 8 16.5003 8C16.8539 8 17.1931 8.14048 17.4431 8.39052C17.6932 8.64057 17.8337 8.97971 17.8337 9.33333Z" fill="#FF6620"/>
<path fill-rule="evenodd" clip-rule="evenodd" d="M7.16699 19.3335C7.16699 18.8031 7.37771 18.2944 7.75278 17.9193C8.12785 17.5442 8.63656 17.3335 9.16699 17.3335H23.8337C24.3641 17.3335 24.8728 17.5442 25.2479 17.9193C25.6229 18.2944 25.8337 18.8031 25.8337 19.3335V27.3335C25.8337 27.8639 25.6229 28.3726 25.2479 28.7477C24.8728 29.1228 24.3641 29.3335 23.8337 29.3335H9.16699C8.63656 29.3335 8.12785 29.1228 7.75278 28.7477C7.37771 28.3726 7.16699 27.8639 7.16699 27.3335V19.3335ZM14.0217 19.3602C14.1599 19.4008 14.2812 19.4851 14.3675 19.6005C14.4538 19.7159 14.5004 19.8561 14.5003 20.0002V24.0002C14.6771 24.0002 14.8467 24.0704 14.9717 24.1954C15.0968 24.3204 15.167 24.49 15.167 24.6668C15.167 24.8436 15.0968 25.0132 14.9717 25.1382C14.8467 25.2633 14.6771 25.3335 14.5003 25.3335V26.0002C14.5003 26.177 14.4301 26.3465 14.3051 26.4716C14.18 26.5966 14.0105 26.6668 13.8337 26.6668C13.6568 26.6668 13.4873 26.5966 13.3623 26.4716C13.2372 26.3465 13.167 26.177 13.167 26.0002V25.3335H10.8337C10.714 25.3334 10.5966 25.3011 10.4937 25.2401C10.3909 25.179 10.3063 25.0914 10.249 24.9864C10.1917 24.8814 10.1636 24.7629 10.1679 24.6433C10.1721 24.5237 10.2084 24.4075 10.273 24.3068L13.273 19.6402C13.3508 19.5188 13.4657 19.426 13.6007 19.3755C13.7357 19.325 13.8834 19.3197 14.0217 19.3602ZM13.167 24.0002V22.2702L12.055 24.0002H13.167ZM22.3357 21.1828C22.394 21.1175 22.4388 21.0414 22.4677 20.9587C22.4966 20.8761 22.5089 20.7885 22.504 20.7011C22.499 20.6137 22.4769 20.5281 22.4389 20.4493C22.4008 20.3704 22.3476 20.2998 22.2823 20.2415C21.7544 19.7694 21.1012 19.4602 20.4015 19.3512C19.7017 19.2422 18.9854 19.3381 18.3389 19.6272C17.6924 19.9163 17.1435 20.3864 16.7583 20.9807C16.3731 21.5749 16.1681 22.268 16.1681 22.9762C16.1681 23.6843 16.3731 24.3774 16.7583 24.9716C17.1435 25.5659 17.6924 26.036 18.3389 26.3251C18.9854 26.6143 19.7017 26.7101 20.4015 26.6011C21.1012 26.4921 21.7544 26.1829 22.2823 25.7108C22.3523 25.6484 22.4083 25.5718 22.4467 25.4863C22.485 25.4007 22.5049 25.308 22.505 25.2142V22.9762C22.505 22.7994 22.4348 22.6298 22.3097 22.5048C22.1847 22.3797 22.0151 22.3095 21.8383 22.3095H19.837C19.6602 22.3095 19.4906 22.3797 19.3656 22.5048C19.2406 22.6298 19.1703 22.7994 19.1703 22.9762C19.1703 23.153 19.2406 23.3225 19.3656 23.4476C19.4906 23.5726 19.6602 23.6428 19.837 23.6428H21.1717V24.8928C20.8214 25.1364 20.411 25.2794 19.9852 25.3064C19.5594 25.3333 19.1343 25.2432 18.7561 25.0457C18.3779 24.8482 18.061 24.5509 17.8397 24.1861C17.6185 23.8213 17.5013 23.4028 17.501 22.9762C17.5008 22.5251 17.6312 22.0837 17.8765 21.7052C18.1218 21.3267 18.4714 21.0273 18.8832 20.8432C19.2949 20.6591 19.7512 20.5982 20.1968 20.6678C20.6424 20.7374 21.0583 20.9346 21.3943 21.2355C21.5261 21.3533 21.6994 21.414 21.8759 21.4041C22.0524 21.3942 22.2178 21.3146 22.3357 21.1828Z" fill="#FF6620"/>
</svg>
