<svg width="33" height="32" viewBox="0 0 33 32" fill="none" xmlns="http://www.w3.org/2000/svg">
<path d="M27.3003 10.2666L25.967 11.5999C28.367 13.9999 28.367 17.7333 25.967 20.2666L27.3003 21.5999C30.6337 18.5333 30.6337 13.4666 27.3003 10.2666ZM24.5003 13.0666L23.167 14.3999C23.8337 15.3333 23.8337 16.5333 23.167 17.4666L24.5003 18.7999C26.1003 17.1999 26.1003 14.7999 24.5003 13.0666ZM19.167 1.33325H5.83366C4.36699 1.33325 3.16699 2.53325 3.16699 3.99992V27.9999C3.16699 29.4666 4.36699 30.6666 5.83366 30.6666H19.167C20.6337 30.6666 21.8337 29.4666 21.8337 27.9999V3.99992C21.8337 2.53325 20.6337 1.33325 19.167 1.33325ZM19.167 26.6666H5.83366V5.33325H19.167V26.6666Z" fill="#FF6620"/>
</svg>
