<svg width="33" height="32" viewBox="0 0 33 32" fill="none" xmlns="http://www.w3.org/2000/svg">
<path d="M21.5004 3.00005C17.0704 3.00005 13.5004 6.57005 13.5004 11C13.5004 11.235 13.5374 11.553 13.5634 11.844L5.00038 20.406C4.53265 20.8708 4.16144 21.4234 3.90813 22.0321C3.65482 22.6409 3.52441 23.2937 3.52441 23.953C3.52441 24.6124 3.65482 25.2652 3.90813 25.874C4.16144 26.4827 4.53265 27.0353 5.00038 27.5C5.46509 27.9678 6.01772 28.339 6.62647 28.5923C7.23521 28.8456 7.88804 28.976 8.54738 28.976C9.20673 28.976 9.85956 28.8456 10.4683 28.5923C11.077 28.339 11.6297 27.9678 12.0944 27.5L20.6564 18.937C20.9464 18.963 21.2664 19 21.5004 19C25.9304 19 29.5004 15.43 29.5004 11C29.5057 9.71105 29.1829 8.4419 28.5624 7.31205L27.9374 6.15605L27.0004 7.09405L22.6874 11.374L21.1254 9.81205L25.4054 5.50005L26.3454 4.56205L25.1884 3.93705C24.0581 3.31778 22.7892 2.99539 21.5004 3.00005ZM21.5004 5.00005C21.9864 5.00005 22.3484 5.21005 22.7804 5.31305L19.0004 9.09305L18.2804 9.81305L19.0004 10.5001L22.0004 13.5L22.6884 14.22L23.4064 13.5L27.1884 9.72005C27.2914 10.1521 27.5004 10.514 27.5004 11C27.5004 14.37 24.8704 17 21.5004 17C21.1004 17 20.7804 17 20.5304 16.937L20.0004 16.781L19.5944 17.188L10.6874 26.095C9.45738 27.325 7.63738 27.325 6.40738 26.095L6.37538 26.063C5.17538 24.833 5.18538 23.033 6.40538 21.813L15.3124 12.907L15.7194 12.501L15.5614 11.971C15.5014 11.721 15.4994 11.401 15.4994 11.001C15.4994 7.63105 18.1294 5.00105 21.4994 5.00105L21.5004 5.00005Z" fill="#FF6620"/>
</svg>
