<svg width="33" height="32" viewBox="0 0 33 32" fill="none" xmlns="http://www.w3.org/2000/svg">
<path d="M23.009 12.689L17.009 9.13898C16.8549 9.04767 16.679 8.99958 16.4999 8.99976C16.3207 8.99993 16.1449 9.04837 15.991 9.13998L9.991 12.69C9.8414 12.7782 9.71742 12.904 9.63131 13.0548C9.5452 13.2056 9.49993 13.3763 9.5 13.55V20.45C9.5 20.804 9.687 21.131 9.991 21.31L15.991 24.86C16.1447 24.9523 16.3207 25.001 16.5 25.001C16.6793 25.001 16.8553 24.9523 17.009 24.86L23.009 21.31C23.1586 21.2217 23.2826 21.096 23.3687 20.9452C23.4548 20.7943 23.5001 20.6237 23.5 20.45V13.55C23.5 13.3762 23.4548 13.2053 23.3687 13.0544C23.2826 12.9034 23.1586 12.7774 23.009 12.689ZM21.5 19.88L16.5 22.838L11.5 19.88V14.12L16.5 11.162L21.5 14.12V19.88Z" fill="#FF6620"/>
<path d="M6.5 20.184V11.07L12.7 7.406L11.683 5.684L4.991 9.639C4.84139 9.72747 4.71742 9.8534 4.63132 10.0044C4.54522 10.1554 4.49996 10.3262 4.5 10.5V20.184C3.91677 20.3896 3.41144 20.7706 3.05336 21.2748C2.69528 21.779 2.50198 22.3816 2.5 23C2.5 24.654 3.846 26 5.5 26C7.154 26 8.5 24.654 8.5 23C8.49802 22.3816 8.30472 21.779 7.94664 21.2748C7.58856 20.7706 7.08323 20.3896 6.5 20.184ZM5.5 24C5.24252 23.9885 4.99941 23.8781 4.82128 23.6918C4.64315 23.5055 4.54373 23.2577 4.54373 23C4.54373 22.7423 4.64315 22.4945 4.82128 22.3082C4.99941 22.1219 5.24252 22.0115 5.5 22C5.75748 22.0115 6.00059 22.1219 6.17872 22.3082C6.35685 22.4945 6.45627 22.7423 6.45627 23C6.45627 23.2577 6.35685 23.5055 6.17872 23.6918C6.00059 23.8781 5.75748 23.9885 5.5 24ZM27.5 20C25.846 20 24.5 21.346 24.5 23C24.5 23.353 24.572 23.687 24.685 24.002L16.5 28.838L10.096 25.054L9.079 26.776L15.991 30.86C16.1449 30.9516 16.3207 31 16.4999 31.0002C16.679 31.0004 16.8549 30.9523 17.009 30.861L25.969 25.566C26.419 25.835 26.939 26 27.5 26C29.154 26 30.5 24.654 30.5 23C30.5 21.346 29.154 20 27.5 20ZM27.5 24C27.2425 23.9885 26.9994 23.8781 26.8213 23.6918C26.6431 23.5055 26.5437 23.2577 26.5437 23C26.5437 22.7423 26.6431 22.4945 26.8213 22.3082C26.9994 22.1219 27.2425 22.0115 27.5 22C27.7575 22.0115 28.0006 22.1219 28.1787 22.3082C28.3569 22.4945 28.4563 22.7423 28.4563 23C28.4563 23.2577 28.3569 23.5055 28.1787 23.6918C28.0006 23.8781 27.7575 23.9885 27.5 24ZM16.5 7C17.231 7 17.892 6.727 18.413 6.292L26.5 11.071V18H28.5V10.5C28.5 10.3262 28.4548 10.1554 28.3687 10.0044C28.2826 9.8534 28.1586 9.72747 28.009 9.639L19.442 4.577C19.478 4.39 19.5 4.198 19.5 4C19.5 2.346 18.154 1 16.5 1C14.846 1 13.5 2.346 13.5 4C13.5 5.654 14.846 7 16.5 7ZM16.5 3C16.6981 2.9998 16.8917 3.05837 17.0565 3.16828C17.2213 3.2782 17.3497 3.43452 17.4256 3.61747C17.5015 3.80042 17.5214 4.00177 17.4828 4.19604C17.4442 4.39031 17.3489 4.56876 17.2088 4.70881C17.0688 4.84887 16.8903 4.94422 16.696 4.98281C16.5018 5.02141 16.3004 5.0015 16.1175 4.92561C15.9345 4.84972 15.7782 4.72127 15.6683 4.5565C15.5584 4.39174 15.4998 4.19806 15.5 4C15.5 3.448 15.949 3 16.5 3Z" fill="#FF6620"/>
</svg>
