<svg width="110" height="87" viewBox="0 0 110 87" fill="none" xmlns="http://www.w3.org/2000/svg">
<path d="M13 41.754C13.6344 40.5587 14.6387 40.2249 15.9701 40.2428C20.426 40.3047 24.8819 40.2933 29.3378 40.2542C31.3562 40.2363 33.3779 40.1728 35.3634 39.7086C35.822 39.6012 35.914 39.422 35.8894 38.9986C35.6888 35.3996 33.986 32.8591 30.587 31.4945C29.7553 31.1606 29.4085 30.5418 29.6583 29.8643C29.9344 29.1185 30.5853 28.8563 31.4828 29.1624C32.9012 29.6477 34.1093 30.4701 35.204 31.4749C35.3946 31.6492 35.5146 31.9195 35.8253 31.9732C35.988 31.7176 35.9042 31.4407 35.9058 31.1834C35.9124 28.0078 35.9107 24.8322 35.9107 21.6567C35.9107 21.4401 35.9058 21.2218 35.914 21.0052C35.9469 20.064 36.4186 19.5087 37.1763 19.5152C37.9308 19.5233 38.4189 20.1014 38.4206 21.0215C38.4255 24.088 38.4222 27.1561 38.4222 30.2226C38.4222 30.8105 38.4222 31.3984 38.4222 32.154C39.4117 31.1867 40.3157 30.3773 41.4021 29.8122C41.8591 29.5744 42.3308 29.3546 42.8157 29.1804C43.7131 28.8579 44.3936 29.1136 44.6566 29.8269C44.9261 30.5597 44.5908 31.1476 43.6967 31.5091C40.434 32.8249 38.7608 35.2726 38.4321 38.8097C39.3854 38.5768 40.2006 38.1778 41.0175 37.8C42.556 37.0884 43.9794 36.1797 45.3715 35.2221C50.2269 31.8788 55.6229 30.2552 61.5203 30.2161C64.1156 30.1982 66.7142 30.3561 69.303 30.0467C69.5199 30.0207 69.7385 30.0076 69.9522 29.9685C71.7536 29.6412 71.7684 29.6363 71.351 27.8368C70.6902 24.9821 68.9742 23.0148 66.2211 21.9579C65.5867 21.7153 65.2087 21.3033 65.2596 20.6193C65.3007 20.0493 65.6607 19.691 66.2031 19.5103C66.6041 19.3767 66.9641 19.5445 67.3125 19.678C68.6537 20.191 69.8289 20.9711 70.871 21.9514C71.0617 22.1305 71.2507 22.3097 71.4644 22.5132C71.6419 22.1761 71.563 21.8781 71.563 21.5931C71.5696 18.201 71.563 14.8072 71.5712 11.415C71.5728 10.5388 72.0511 10.0145 72.8039 10.0031C73.5699 9.99166 74.0284 10.4867 74.0745 11.3808C74.086 11.5974 74.0794 11.8156 74.0794 12.0322C74.0794 15.2078 74.0761 18.3834 74.0843 21.5589C74.0843 21.8439 73.9923 22.1485 74.206 22.4676C74.8486 21.9042 75.4403 21.3114 76.1372 20.8473C76.9328 20.3164 77.7562 19.8409 78.6832 19.5705C79.4393 19.3507 80.0918 19.6536 80.3367 20.3343C80.5636 20.9662 80.2661 21.5964 79.5412 21.8944C78.6537 22.2592 77.8121 22.6826 77.0577 23.2868C75.4453 24.5766 74.5824 26.2767 74.201 28.2586C74.0893 28.8416 74.2536 28.9458 74.8322 28.7504C78.0669 27.6528 80.7805 25.6921 83.4613 23.6793C86.6861 21.2577 89.8978 18.8182 93.0947 16.3591C93.9198 15.724 94.7646 15.4227 95.7426 15.8787C96.7337 16.3396 96.9984 17.1831 96.9967 18.227C96.9803 33.2093 96.9868 48.1915 96.9852 63.1738C96.9852 63.3904 97.0115 63.6151 96.9704 63.8236C96.8356 64.4978 96.4066 64.8805 95.7147 64.8658C95.0654 64.8511 94.6381 64.4945 94.5312 63.8447C94.4786 63.5255 94.5 63.195 94.5 62.8693C94.5 51.7954 94.5 40.7216 94.5 29.6477C94.5 29.3513 94.5 29.055 94.5 28.7488C94.1121 28.6983 93.9297 28.9752 93.7061 29.1429C90.4008 31.6378 87.0757 34.1098 83.8032 36.6503C78.0784 41.0945 71.5959 43.0878 64.3523 42.8451C60.2153 42.7067 56.1127 42.9591 52.191 44.4965C50.0707 45.3286 48.1115 46.436 46.2492 47.729C45.199 48.4586 44.1339 49.1751 42.9554 49.6946C42.201 50.0285 41.5451 49.807 41.2279 49.1556C40.9156 48.514 41.0915 47.8723 41.8015 47.5043C43.4288 46.6591 44.8982 45.5729 46.435 44.5893C50.8679 41.7492 55.7709 40.4659 61.0026 40.3177C62.5049 40.2754 64.0104 40.277 65.5127 40.3096C71.7093 40.4431 77.199 38.5231 82.0889 34.7857C85.9859 31.8071 89.9044 28.8546 93.8261 25.9103C94.3011 25.5537 94.5329 25.197 94.5181 24.5717C94.4704 22.6028 94.5 20.6307 94.5 18.4778C93.4333 19.2774 92.5063 19.9695 91.5809 20.6665C88.4448 23.0262 85.3499 25.4397 82.1661 27.7326C77.9272 30.7844 73.1376 32.3315 67.9157 32.6621C65.5916 32.8087 63.2708 32.7582 60.9483 32.7761C55.8876 32.8152 51.2525 34.258 47.1089 37.1014C43.4238 39.6305 39.5037 41.5472 35.0659 42.3224C33.6672 42.5667 32.2602 42.7393 30.8335 42.7377C26.0209 42.7312 21.21 42.7556 16.3974 42.7165C15.6167 42.71 15.454 42.9494 15.4704 43.6692C15.5164 45.6494 15.5066 47.6313 15.4737 49.6132C15.4638 50.1881 15.6496 50.3493 16.2166 50.3493C21.6291 50.3428 27.0433 50.4845 32.4525 50.2158C34.0616 50.136 35.6395 49.7989 37.1862 49.3347C37.8765 49.1279 38.5028 49.224 38.8709 49.9275C39.2638 50.6783 38.8709 51.4257 37.9275 51.7238C35.5409 52.4778 33.082 52.8035 30.5886 52.8197C25.8582 52.8507 21.1295 52.8523 16.3991 52.8149C15.6233 52.8083 15.4063 53.0396 15.4737 53.7659C15.5329 54.4124 15.4704 55.0687 15.4901 55.7185C15.5115 56.4171 15.3964 57.0343 14.6404 57.303C13.8761 57.5668 13.4126 57.1174 13 56.5734V41.754Z" fill="#FF6620"/>
<path d="M13 60.482C13.1003 60.4023 13.2153 60.3355 13.3008 60.241C13.6985 59.8046 14.1966 59.7069 14.7176 59.9121C15.2469 60.1205 15.4918 60.557 15.4885 61.1367C15.4819 62.8727 15.4885 64.6103 15.4885 66.3463C15.4885 68.68 15.4803 71.0136 15.4918 73.3472C15.4983 74.6663 15.3175 74.4839 16.5996 74.4856C27.6712 74.4905 38.7411 74.4888 49.8127 74.4888C64.3819 74.4888 78.9528 74.4823 93.5221 74.5067C94.288 74.5067 94.5625 74.3602 94.5247 73.5443C94.4524 72.0005 94.4984 70.4518 94.505 68.9047C94.5099 67.8722 94.9389 67.3332 95.7344 67.3267C96.5529 67.3185 96.9869 67.851 96.9885 68.877C96.9918 70.8312 96.9951 72.7854 96.9885 74.738C96.9836 76.1027 96.2127 76.8974 94.8353 76.9756C94.6167 76.9886 94.3981 76.9837 94.1795 76.9837C68.0472 76.9837 41.9133 76.9788 15.781 76.9984C14.5089 76.9984 13.5309 76.6841 13 75.4627C13 70.4697 13 65.475 13 60.482Z" fill="#FF6620"/>
<path d="M59.1712 63.4199C60.2724 63.4378 61.0943 64.309 61.063 65.4229C61.0351 66.4652 60.1377 67.3218 59.1022 67.2974C58.0732 67.2729 57.1824 66.3756 57.1758 65.3578C57.1692 64.3025 58.0963 63.402 59.1696 63.4199H59.1712Z" fill="#FF6620"/>
<path d="M29.9674 58.9773C29.9691 60.0472 29.047 60.9608 27.9918 60.9348C26.9464 60.9104 26.1065 60.0456 26.1016 58.9903C26.0967 57.8797 26.9415 57.0492 28.0608 57.0638C29.1242 57.0785 29.9674 57.9237 29.9691 58.9757L29.9674 58.9773Z" fill="#FF6620"/>
<path d="M38.5441 71.7155C37.4872 71.7008 36.6342 70.8442 36.6309 69.7987C36.6276 68.7386 37.5612 67.8201 38.6164 67.8462C39.6404 67.8706 40.5345 68.776 40.5395 69.789C40.5444 70.8524 39.6338 71.7301 38.5441 71.7155Z" fill="#FF6620"/>
<path d="M47.768 57.0573C47.7696 58.1223 46.8508 59.0229 45.7824 59.0034C44.7535 58.9838 43.8627 58.0865 43.8594 57.0671C43.8561 56.0183 44.7979 55.0998 45.8548 55.1226C46.8952 55.1438 47.7647 56.0248 47.768 57.0589V57.0573Z" fill="#FF6620"/>
<path d="M24.1525 67.8429C24.1657 68.921 23.3652 69.758 22.2935 69.7857C21.189 69.815 20.2817 68.978 20.2554 67.9081C20.2291 66.8609 21.1512 65.9441 22.2278 65.9457C23.288 65.9473 24.1394 66.7876 24.1525 67.8429Z" fill="#FF6620"/>
<path d="M80.4703 56.4352C80.4819 57.5149 79.6633 58.352 78.5802 58.3683C77.4789 58.3845 76.639 57.5963 76.6111 56.5183C76.5815 55.4239 77.4592 54.5087 78.5374 54.5087C79.5844 54.5087 80.4588 55.38 80.4703 56.4352Z" fill="#FF6620"/>
<path d="M86.9723 46.5225C85.8826 46.5404 85.0345 45.7327 85.0131 44.6595C84.9918 43.5603 85.7791 42.7265 86.8655 42.6939C87.9733 42.6613 88.8954 43.5212 88.9053 44.5927C88.9135 45.6301 88.0374 46.5046 86.9723 46.5225Z" fill="#FF6620"/>
<path d="M67.3798 53.4909C66.295 53.4925 65.4518 52.6734 65.4386 51.6051C65.4255 50.5254 66.341 49.6118 67.411 49.6362C68.4646 49.6606 69.3094 50.5352 69.3028 51.5937C69.2962 52.675 68.4728 53.4876 67.3798 53.4893V53.4909Z" fill="#FF6620"/>
<path d="M87.9777 69.219C87.9662 70.2987 87.1345 71.1113 86.0448 71.1064C84.983 71.1015 84.1037 70.2417 84.0938 69.2027C84.0856 68.1344 85.006 67.2501 86.1023 67.2729C87.1855 67.2974 87.9876 68.1311 87.9777 69.219Z" fill="#FF6620"/>
</svg>
