<svg width="160" height="161" viewBox="0 0 160 161" fill="none" xmlns="http://www.w3.org/2000/svg">
<path d="M136.561 23.4998C135.878 22.8142 135.183 22.1396 134.478 21.4761L118.448 38.7609C118.944 39.2253 119.44 39.7009 119.925 40.1874C130.586 50.8812 136.462 65.1028 136.462 80.2311C136.462 95.3595 130.586 109.581 119.925 120.275C109.265 130.969 95.0869 136.863 80.0052 136.863C64.9235 136.863 50.7459 130.969 40.0851 120.275C39.6 119.788 39.1259 119.291 38.6629 118.793L21.4204 134.872C22.0819 135.58 22.7544 136.277 23.4379 136.973C38.5527 152.124 58.6395 160.473 80.0052 160.473C101.371 160.473 121.458 152.124 136.573 136.973C151.687 121.812 160 101.663 160 80.2311C160 58.7993 151.676 38.6503 136.573 23.4888L136.561 23.4998Z" fill="#0D1720"/>
<path d="M61.3748 26.7621L53.6355 4.46765C51.7944 5.10906 49.9422 5.83893 48.1562 6.61305L57.5161 28.266C58.784 27.7131 60.0739 27.2044 61.3748 26.751V26.7621Z" fill="#0D1720"/>
<path d="M79.6966 23.6104L79.5643 0C77.613 0 75.6396 0.0884698 73.6992 0.243292L75.5403 23.7763C76.9184 23.6657 78.3075 23.6104 79.6966 23.5993V23.6104Z" fill="#0D1720"/>
<path d="M52.8637 30.5551L41.5415 9.86426C39.8216 10.8043 38.1238 11.8327 36.4922 12.8943L49.3138 32.6895C50.4604 31.9375 51.6621 31.2187 52.8748 30.5551H52.8637Z" fill="#0D1720"/>
<path d="M45.0909 35.7196L30.5053 17.1852C28.9839 18.3906 27.4735 19.6734 26.0293 21.0004L41.9158 38.4179C42.9411 37.478 44.0104 36.5711 45.0909 35.7196Z" fill="#0D1720"/>
<path d="M114.412 35.3437L128.799 16.6544C127.256 15.4601 125.646 14.2989 124.015 13.2262L111.05 32.9329C112.196 33.6959 113.332 34.5032 114.412 35.3437Z" fill="#0D1720"/>
<path d="M106.597 30.2678L117.699 9.4553C115.979 8.53742 114.204 7.66378 112.407 6.86755L102.871 28.4542C104.128 29.0182 105.385 29.6264 106.586 30.2789L106.597 30.2678Z" fill="#0D1720"/>
<path d="M92.7402 1.01728C90.8108 0.707635 88.8485 0.464343 86.9081 0.298462L84.8906 23.8204C86.2687 23.942 87.6468 24.1079 89.0028 24.3291L92.7402 1.01728Z" fill="#0D1720"/>
<path d="M105.561 4.19123C103.708 3.57194 101.812 3.00795 99.927 2.52136L94.084 25.3908C95.418 25.7336 96.7519 26.1318 98.0639 26.5741L105.561 4.20229V4.19123Z" fill="#0D1720"/>
<path d="M70.4019 24.4287L66.422 1.16113C64.4927 1.49289 62.5634 1.90207 60.6782 2.36653L66.3449 25.2802C67.6789 24.9485 69.0459 24.6609 70.413 24.4287H70.4019Z" fill="#0D1720"/>
<path d="M23.7467 85.2075L0.297363 87.2644C0.462733 89.2218 0.716299 91.1903 1.02499 93.1145L24.2539 89.3435C24.0334 87.9833 23.868 86.5899 23.7467 85.2075Z" fill="#0D1720"/>
<path d="M25.3245 94.4306L2.53662 100.314C3.0217 102.205 3.58396 104.107 4.21236 105.965L26.5152 98.4118C26.0742 97.0958 25.6773 95.7577 25.3355 94.4196L25.3245 94.4306Z" fill="#0D1720"/>
<path d="M38.2455 42.1115L20.8596 26.198C19.5477 27.6467 18.2689 29.1617 17.0562 30.6989L35.5555 45.2854C36.4044 44.2016 37.3084 43.1289 38.2344 42.1115H38.2455Z" fill="#0D1720"/>
<path d="M32.8655 111.45L13.2417 124.488C14.3221 126.114 15.4687 127.728 16.6704 129.288L35.2799 114.845C34.431 113.75 33.6262 112.611 32.8655 111.461V111.45Z" fill="#0D1720"/>
<path d="M28.3889 103.255L6.87988 112.843C7.67366 114.635 8.5446 116.415 9.47067 118.14L30.208 106.982C29.5575 105.766 28.9401 104.505 28.3889 103.255Z" fill="#0D1720"/>
<path d="M28.1556 57.7486L6.55841 48.3818C5.78669 50.1734 5.07009 52.0312 4.43066 53.8891L26.6673 61.6191C27.1193 60.3142 27.6265 59.0093 28.1667 57.7486H28.1556Z" fill="#0D1720"/>
<path d="M23.7029 75.8519L0.242541 74.0161C0.0881969 75.9735 0.0110246 77.953 0 79.8994L23.5375 79.9989C23.5375 78.6165 23.6037 77.2231 23.7029 75.8408V75.8519Z" fill="#0D1720"/>
<path d="M32.5437 49.5209L12.7876 36.6927C11.7292 38.3405 10.7149 40.0435 9.77783 41.7687L30.4269 53.0928C31.0774 51.8874 31.794 50.6931 32.5437 49.5319V49.5209Z" fill="#0D1720"/>
<path d="M25.1895 66.5955L2.33547 60.9556C1.87244 62.8577 1.46453 64.7929 1.13379 66.7172L24.3296 70.6872C24.5611 69.327 24.8477 67.9557 25.1785 66.6066L25.1895 66.5955Z" fill="#0D1720"/>
</svg>
