<svg width="99" height="22" viewBox="0 0 99 22" fill="none" xmlns="http://www.w3.org/2000/svg">
<path d="M34.0854 1.96799L34.0594 3.28899H34.7734L35.7594 3.26299L35.8394 3.36799L35.7514 4.42499L34.6684 4.39899H34.0434L34.0344 4.70699L34.0874 6.52999H32.6504L32.7294 4.84799L32.6504 0.848986H36.2084L36.2884 0.954986L36.1904 2.01199L34.8164 1.95899L34.0854 1.96799ZM39.6724 0.760986C40.4834 0.760986 41.1084 1.00299 41.5484 1.48799C41.9884 1.97299 42.2094 2.66099 42.2094 3.55299C42.2094 4.52799 41.9684 5.28299 41.4874 5.82099C41.0064 6.35899 40.3274 6.62699 39.4524 6.62699C38.6484 6.62699 38.0254 6.37899 37.5854 5.88299C37.1454 5.38699 36.9254 4.68399 36.9254 3.77399C36.9254 2.81099 37.1644 2.06799 37.6434 1.54599C38.1214 1.02199 38.7974 0.760986 39.6724 0.760986ZM39.5494 1.90599C39.2734 1.90599 39.0534 1.95999 38.8884 2.06899C38.7234 2.17799 38.6034 2.35399 38.5274 2.59799C38.4514 2.84199 38.4134 3.17199 38.4134 3.58899C38.4134 4.08799 38.4514 4.47999 38.5274 4.76499C38.6034 5.04999 38.7254 5.25399 38.8934 5.37699C39.0614 5.49999 39.2884 5.56199 39.5754 5.56199C39.8574 5.56199 40.0804 5.50699 40.2454 5.39899C40.4094 5.29099 40.5284 5.11299 40.6014 4.86599C40.6744 4.61899 40.7114 4.28199 40.7114 3.85299C40.7114 3.35999 40.6724 2.97199 40.5964 2.68999C40.5204 2.40799 40.4004 2.20699 40.2364 2.08599C40.0714 1.96599 39.8424 1.90599 39.5494 1.90599ZM46.8004 5.46399L46.7034 6.52999H43.5064L43.5854 4.84799L43.5064 0.848986H44.9594L44.8804 4.70699L44.9064 5.35899H46.7124L46.8004 5.46399ZM51.2594 5.46399L51.1624 6.52999H47.9654L48.0444 4.84799L47.9654 0.848986H49.4184L49.3384 4.70699L49.3644 5.35899H51.1704L51.2594 5.46399ZM54.5564 0.760986C55.3664 0.760986 55.9914 1.00299 56.4314 1.48799C56.8714 1.97299 57.0924 2.66099 57.0924 3.55299C57.0924 4.52799 56.8514 5.28299 56.3704 5.82099C55.8884 6.35899 55.2104 6.62699 54.3354 6.62699C53.5304 6.62699 52.9084 6.37899 52.4684 5.88299C52.0284 5.38699 51.8074 4.68399 51.8074 3.77399C51.8074 2.81099 52.0464 2.06799 52.5254 1.54599C53.0034 1.02199 53.6814 0.760986 54.5564 0.760986ZM54.4324 1.90599C54.1564 1.90599 53.9364 1.95999 53.7724 2.06899C53.6084 2.17799 53.4874 2.35399 53.4114 2.59799C53.3344 2.84199 53.2974 3.17199 53.2974 3.58899C53.2974 4.08799 53.3354 4.47999 53.4114 4.76499C53.4874 5.04999 53.6094 5.25399 53.7764 5.37699C53.9434 5.49999 54.1724 5.56199 54.4594 5.56199C54.7414 5.56199 54.9644 5.50699 55.1294 5.39899C55.2934 5.29099 55.4124 5.11299 55.4854 4.86599C55.5584 4.61899 55.5954 4.28199 55.5954 3.85299C55.5954 3.35999 55.5564 2.97199 55.4804 2.68999C55.4044 2.40799 55.2844 2.20699 55.1204 2.08599C54.9544 1.96599 54.7264 1.90599 54.4324 1.90599ZM63.8144 6.52999H62.3084L61.5944 4.08099H61.5064L60.8014 6.52999H59.2864L57.7984 0.848986H59.1904L59.2784 1.62399L60.0974 5.07699H60.1854L61.0224 2.20499L60.6704 0.848986H62.1144L62.2374 1.76599L63.0914 5.07799H63.1794L64.1404 1.70399L64.2894 0.849986H65.6094L63.8144 6.52999ZM73.1994 3.72899L73.1904 4.54799C73.1964 5.21199 72.9924 5.72299 72.5784 6.08099C72.1644 6.43899 71.5754 6.61899 70.8124 6.61899C70.0724 6.61899 69.5064 6.44199 69.1174 6.08999C68.7264 5.73799 68.5404 5.23299 68.5574 4.57499L68.5754 3.71199L68.5404 0.848986H69.9674L69.9054 4.38099C69.8994 4.75599 69.9754 5.03199 70.1344 5.20899C70.2934 5.38499 70.5394 5.47299 70.8744 5.47299C71.2154 5.47299 71.4664 5.38699 71.6274 5.21299C71.7884 5.03999 71.8664 4.77399 71.8604 4.41599L71.7984 0.848986H73.2514L73.1994 3.72899ZM76.8834 0.760986C77.3894 0.760986 77.8994 0.860987 78.4154 1.05999L78.1864 2.25799L77.9754 2.33699C77.7514 2.18999 77.5284 2.07599 77.3054 1.99299C77.0824 1.91099 76.8884 1.86999 76.7244 1.86999C76.5304 1.86999 76.3764 1.91799 76.2614 2.01499C76.1474 2.11199 76.0904 2.22499 76.0904 2.35399C76.0904 2.50099 76.1614 2.62499 76.3054 2.72799C76.4504 2.83099 76.6774 2.95299 76.9894 3.09399C77.3174 3.24699 77.5834 3.38599 77.7864 3.51199C77.9884 3.63799 78.1654 3.80699 78.3144 4.01799C78.4634 4.22899 78.5394 4.48799 78.5394 4.79299C78.5394 5.13299 78.4464 5.44099 78.2624 5.71699C78.0764 5.99299 77.8144 6.21199 77.4734 6.37299C77.1334 6.53399 76.7404 6.61599 76.2934 6.61599C75.7004 6.61599 75.1124 6.49799 74.5314 6.26299L74.7344 4.98599L74.8834 4.89799C75.1294 5.10299 75.3984 5.26299 75.6894 5.37799C75.9804 5.49199 76.2314 5.54999 76.4424 5.54999C76.6664 5.54999 76.8354 5.49999 76.9494 5.39999C77.0634 5.29999 77.1214 5.18299 77.1214 5.04799C77.1214 4.88899 77.0484 4.75699 76.9004 4.65199C76.7544 4.54599 76.5244 4.42299 76.2134 4.28199C75.8964 4.13599 75.6364 3.99899 75.4344 3.87199C75.2314 3.74599 75.0564 3.57699 74.9104 3.36599C74.7644 3.15499 74.6904 2.89599 74.6904 2.59099C74.6904 2.24399 74.7824 1.93199 74.9674 1.65299C75.1524 1.37399 75.4104 1.15499 75.7414 0.996986C76.0744 0.839986 76.4544 0.760986 76.8834 0.760986ZM84.1814 0.760986C84.9924 0.760986 85.6174 1.00299 86.0574 1.48799C86.4974 1.97299 86.7174 2.66099 86.7174 3.55299C86.7174 4.52799 86.4764 5.28299 85.9954 5.82099C85.5134 6.35899 84.8354 6.62699 83.9604 6.62699C83.1564 6.62699 82.5334 6.37899 82.0934 5.88299C81.6534 5.38699 81.4334 4.68399 81.4334 3.77399C81.4334 2.81099 81.6724 2.06799 82.1514 1.54599C82.6294 1.02199 83.3064 0.760986 84.1814 0.760986ZM84.0574 1.90599C83.7824 1.90599 83.5614 1.95999 83.3974 2.06899C83.2334 2.17799 83.1124 2.35399 83.0364 2.59799C82.9604 2.84199 82.9224 3.17199 82.9224 3.58899C82.9224 4.08799 82.9604 4.47999 83.0364 4.76499C83.1124 5.04999 83.2344 5.25399 83.4014 5.37699C83.5694 5.50099 83.7974 5.56199 84.0844 5.56199C84.3664 5.56199 84.5904 5.50699 84.7544 5.39899C84.9184 5.29099 85.0374 5.11299 85.1104 4.86599C85.1834 4.61899 85.2204 4.28199 85.2204 3.85299C85.2204 3.35999 85.1824 2.97199 85.1064 2.68999C85.0294 2.40799 84.9094 2.20699 84.7454 2.08599C84.5794 1.96599 84.3514 1.90599 84.0574 1.90599ZM92.9114 4.73299L92.9644 6.52999H91.4144L89.3964 3.01499H89.3084L89.3004 4.53099L89.3534 6.53099H88.0584L88.1294 4.85799L88.0584 0.849986H89.6004L91.6254 4.36499H91.7144L91.6784 0.903986L92.9914 0.823986L92.9114 4.73299ZM39.3664 18.633L39.1824 20.934H33.2804L33.4334 18.02L33.2804 11.014H36.4074L36.2384 17.713L36.2694 18.418H39.1974L39.3664 18.633ZM43.2454 17.713L43.3684 20.934H40.2864L40.4394 18.02L40.2864 11.014H43.4134L43.2454 17.713ZM54.1764 17.697L54.2984 20.933H50.9564L48.1664 15.628H47.9824L47.9664 17.345L48.0894 20.933H45.2994L45.4524 18.019L45.2994 11.013H48.6414L51.4324 16.318H51.6164L51.5244 11.121L54.3454 10.953L54.1764 17.697ZM61.9644 15.705C62.9034 17.178 63.9774 18.705 65.1834 20.289L65.1374 20.627C64.0644 20.861 63.0424 21.025 62.0724 21.117L61.7344 20.933C60.6924 19.144 59.8384 17.626 59.1744 16.378L59.1434 17.712L59.2664 20.933H56.1844L56.3374 18.019L56.1844 11.013H59.3124L59.2054 15.152L61.1064 12.088L61.6274 11.014H64.8784L61.9644 15.705ZM72.8184 18.48L72.9864 18.695L72.8024 20.933H65.8114L65.9644 18.019L65.8114 11.013H72.9244L73.0934 11.228L72.8944 13.466L70.4564 13.374H68.8774L68.8464 14.769H70.3654L71.9594 14.724L72.1284 14.939L71.9444 17.177L70.1654 17.13H68.7864L68.7704 17.712L68.8004 18.571H70.2724L72.8184 18.48ZM78.5824 10.953C80.0444 10.953 81.1654 11.35 81.9474 12.141C82.7294 12.934 83.1204 14.075 83.1204 15.569C83.1204 17.337 82.6654 18.696 81.7564 19.645C80.8474 20.596 79.5434 21.071 77.8474 21.071C76.7844 21.071 75.5364 21.026 74.1064 20.934L74.2594 18.02L74.1064 11.014L78.5824 10.953ZM78.4294 18.787C78.9094 18.787 79.2754 18.596 79.5264 18.211C79.7764 17.828 79.9014 17.197 79.9014 16.318C79.9014 15.572 79.8504 14.984 79.7484 14.554C79.6464 14.126 79.4824 13.816 79.2584 13.626C79.0334 13.438 78.7214 13.343 78.3224 13.343C77.9344 13.343 77.5514 13.364 77.1734 13.406L77.0664 17.713L77.0974 18.664C77.7094 18.746 78.1534 18.787 78.4294 18.787ZM87.0914 17.713L87.2144 20.934H84.1324L84.2854 18.02L84.1324 11.014H87.2594L87.0914 17.713ZM98.0214 17.697L98.1444 20.933H94.8024L92.0114 15.628H91.8274L91.8114 17.345L91.9344 20.933H89.1444L89.2974 18.019L89.1444 11.013H92.4864L95.2764 16.318H95.4604L95.3684 11.121L98.1894 10.953L98.0214 17.697Z" fill="#F4F3F2"/>
<path d="M4.35919 4.26797C4.35919 5.29897 3.52019 6.13797 2.48819 6.13797C1.45619 6.13797 0.617188 5.29897 0.617188 4.26797C0.617188 3.23697 1.45619 2.39697 2.48819 2.39697C3.52019 2.39697 4.35919 3.23597 4.35919 4.26797ZM0.618188 7.38497H4.35919V18.608H0.618188V7.38497ZM6.64219 7.38497H10.0892V9.15497H10.1402C10.6212 8.29297 11.7952 7.38497 13.5462 7.38497C17.1912 7.38497 17.8652 9.64997 17.8652 12.602V18.608H14.2662V13.286C14.2662 12.016 14.2382 10.384 12.3952 10.384C10.5202 10.384 10.2362 11.765 10.2362 13.195V18.613H6.64219V7.38497Z" fill="#F4F3F2"/>
</svg>
