<svg width="39" height="38" viewBox="0 0 39 38" fill="none" xmlns="http://www.w3.org/2000/svg">
<path d="M16.3333 7.91667L19.5 4.75M13.1667 25.3333L25.8333 12.6667M19.5 33.25L22.6667 30.0833M26.625 30.0833C27.6748 30.0833 28.6816 29.6663 29.424 28.924C30.1663 28.1816 30.5833 27.1748 30.5833 26.125C30.5833 25.0752 30.1663 24.0684 29.424 23.326C28.6816 22.5837 27.6748 22.1667 26.625 22.1667C25.5752 22.1667 24.5684 22.5837 23.826 23.326C23.0837 24.0684 22.6667 25.0752 22.6667 26.125C22.6667 27.1748 23.0837 28.1816 23.826 28.924C24.5684 29.6663 25.5752 30.0833 26.625 30.0833ZM12.375 15.8333C13.4248 15.8333 14.4316 15.4163 15.174 14.674C15.9163 13.9316 16.3333 12.9248 16.3333 11.875C16.3333 10.8252 15.9163 9.81837 15.174 9.07604C14.4316 8.3337 13.4248 7.91667 12.375 7.91667C11.3252 7.91667 10.3184 8.3337 9.57604 9.07604C8.8337 9.81837 8.41667 10.8252 8.41667 11.875C8.41667 12.9248 8.8337 13.9316 9.57604 14.674C10.3184 15.4163 11.3252 15.8333 12.375 15.8333ZM9.20833 33.25C10.2581 33.25 11.265 32.833 12.0073 32.0906C12.7496 31.3483 13.1667 30.3415 13.1667 29.2917C13.1667 28.2419 12.7496 27.235 12.0073 26.4927C11.265 25.7504 10.2581 25.3333 9.20833 25.3333C8.15852 25.3333 7.1517 25.7504 6.40937 26.4927C5.66704 27.235 5.25 28.2419 5.25 29.2917C5.25 30.3415 5.66704 31.3483 6.40937 32.0906C7.1517 32.833 8.15852 33.25 9.20833 33.25ZM29.7917 12.6667C30.8415 12.6667 31.8483 12.2496 32.5906 11.5073C33.333 10.765 33.75 9.75815 33.75 8.70833C33.75 7.65852 33.333 6.6517 32.5906 5.90937C31.8483 5.16704 30.8415 4.75 29.7917 4.75C28.7419 4.75 27.735 5.16704 26.9927 5.90937C26.2504 6.6517 25.8333 7.65852 25.8333 8.70833C25.8333 9.75815 26.2504 10.765 26.9927 11.5073C27.735 12.2496 28.7419 12.6667 29.7917 12.6667Z" stroke="#FF6620" stroke-width="2.33333" stroke-linecap="round" stroke-linejoin="round"/>
</svg>
