<svg width="36" height="37" viewBox="0 0 36 37" fill="none" xmlns="http://www.w3.org/2000/svg">
<g clip-path="url(#clip0_23_410)">
<path d="M-1.90735e-05 9.75635V27.2446C0.022522 27.3247 0.0582161 27.4029 0.065731 27.485C0.133358 28.2187 0.306179 28.9263 0.537239 29.6214C1.1487 31.4605 2.28708 32.9183 3.64807 34.2235C4.85972 35.3858 6.24982 36.2045 7.85032 36.6582C8.39228 36.8117 8.95114 36.8533 9.49121 37H26.5059C26.583 36.9768 26.659 36.9392 26.7379 36.9315C27.3691 36.8706 27.9806 36.7152 28.5836 36.5231C30.4386 35.9323 31.917 34.767 33.2235 33.3295C35.0466 31.3263 36.0047 28.9804 36 26.2213C35.9906 21.0197 35.9953 15.8181 35.9981 10.6165C35.9981 9.65885 35.8572 8.72723 35.597 7.8101C35.0307 5.81848 33.865 4.24005 32.4158 2.84214C30.4856 0.979883 28.2154 0.00482701 25.5648 0.00289621C20.4918 -0.0019308 15.4198 0.00289621 10.3469 0C9.41607 0 8.50875 0.147707 7.61645 0.411261C5.65058 0.990503 4.09516 2.20305 2.72853 3.72066C1.58639 4.98727 0.762661 6.42958 0.31839 8.10069C0.173744 8.64614 0.133358 9.20994 0.000919342 9.75635H-1.90735e-05ZM2.81213 18.5164C2.81213 15.9755 2.81213 13.4345 2.81213 10.8936C2.81213 10.1078 2.90606 9.33544 3.13148 8.58242C3.54945 7.18356 4.39572 6.08783 5.39697 5.07801C6.82371 3.63957 8.51908 2.90007 10.5066 2.89524C15.4978 2.88462 20.489 2.89041 25.4803 2.89331C26.1255 2.89331 26.7605 2.98502 27.3879 3.14818C28.9508 3.55268 30.1381 4.53642 31.2116 5.71228C32.5219 7.14784 33.1841 8.84308 33.185 10.8086C33.1878 15.9388 33.1869 21.0689 33.185 26.1991C33.185 26.8633 33.1061 27.5178 32.9399 28.1608C32.5538 29.6523 31.6925 30.8205 30.6387 31.8872C29.1875 33.3575 27.4659 34.1077 25.4389 34.1096C20.4834 34.1154 15.5269 34.1115 10.5714 34.1115C10.0191 34.1115 9.47243 34.0546 8.93329 33.9358C7.4549 33.6095 6.26673 32.7947 5.19034 31.7202C3.59735 30.1302 2.78677 28.2457 2.80743 25.9597C2.82998 23.4795 2.81307 20.9985 2.81307 18.5174L2.81213 18.5164Z" fill="#FF6620"/>
<path d="M14.6104 19.9452C14.7363 19.9452 14.8622 19.9452 14.9871 19.9452C18.3036 19.9452 21.6192 19.9471 24.9357 19.9442C25.6721 19.9442 26.2498 19.4094 26.3493 18.6545C26.4386 17.9797 25.9764 17.2981 25.3021 17.0963C25.1396 17.048 24.9771 17.0567 24.8146 17.0567C21.5337 17.0558 18.2529 17.0567 14.9721 17.0538C14.85 17.0538 14.7203 17.0896 14.5776 17.0094C14.664 16.9138 14.7382 16.827 14.818 16.7449C15.7376 15.7988 16.6599 14.8566 17.5757 13.9076C18.2041 13.2569 18.2238 12.3909 17.6339 11.7876C17.046 11.1861 16.2053 11.2103 15.5713 11.8609C13.7707 13.7068 11.973 15.5546 10.1771 17.4052C9.52999 18.0723 9.52247 18.9209 10.163 19.5813C11.9739 21.4503 13.7895 23.3145 15.6061 25.1767C16.0212 25.6025 16.5218 25.7598 17.0854 25.5629C17.6151 25.3775 17.9392 24.9788 18.0369 24.4121C18.1261 23.8985 17.9429 23.468 17.5907 23.1059C16.6787 22.1695 15.7686 21.2311 14.8556 20.2966C14.7645 20.2039 14.6555 20.1296 14.555 20.0466C14.5738 20.0128 14.5926 19.979 14.6114 19.9452H14.6104Z" fill="#FF6620"/>
</g>
<defs>
<clipPath id="clip0_23_410">
<rect width="36" height="37" fill="white" transform="matrix(-1 0 0 1 36 0)"/>
</clipPath>
</defs>
</svg>
