<svg width="38" height="38" viewBox="0 0 38 38" fill="none" xmlns="http://www.w3.org/2000/svg">
<path d="M2.58363 18.0405V31.6388H8.34063L8.63133 31.673C13.976 32.9194 17.5176 33.8181 19.2827 34.3748C21.6273 35.1139 22.5013 35.2944 24.0916 35.4008C25.281 35.4825 26.6319 35.0246 27.2475 34.3976C27.5876 34.0518 27.8422 33.3412 27.9429 32.2392C27.9638 32.0082 28.0464 31.7869 28.1821 31.5987C28.3178 31.4105 28.5017 31.2623 28.7143 31.1695C29.1874 30.9643 29.5807 30.6299 29.9094 30.1435C30.2134 29.6989 30.411 28.8705 30.4471 27.6716C30.4535 27.4512 30.516 27.2361 30.6287 27.0466C30.7414 26.8571 30.9006 26.6994 31.0912 26.5886C32.197 25.9483 32.7442 25.2263 32.8582 24.3789C32.9836 23.4422 32.6796 22.3877 31.8835 21.1869C31.6967 20.9053 31.6272 20.5619 31.6896 20.2298C31.7521 19.8977 31.9416 19.6031 32.2179 19.4085C32.9798 18.8727 33.3978 18.1279 33.5023 17.0715C33.6695 15.3881 32.596 14.1436 30.1659 13.8947C28.0016 13.6807 25.8163 13.8629 23.7173 14.4324C23.4792 14.4947 23.2283 14.4876 22.9941 14.412C22.7599 14.3365 22.5521 14.1956 22.3952 14.006C22.2383 13.8164 22.1389 13.5859 22.1085 13.3417C22.0782 13.0975 22.1182 12.8497 22.2239 12.6274C23.1739 10.6172 23.7021 8.95854 23.8256 7.67414C23.9871 5.96984 23.5938 4.73484 22.6742 3.71643C21.9769 2.94503 20.8616 2.50424 20.4436 2.59544C19.8926 2.71324 19.5335 3.03244 19.0661 4.14964C18.7906 4.81084 18.6576 5.37324 18.4296 6.68614C18.2111 7.93254 18.0914 8.49494 17.8425 9.23214C17.092 11.4665 15.2509 13.7826 12.779 15.3805C11.0466 16.4991 9.16903 17.3749 7.19873 17.9835C7.07564 18.0215 6.94754 18.0407 6.81873 18.0405H2.58363ZM2.50383 34.2285C1.89013 34.2456 1.33913 34.1088 0.877433 33.7858C0.288433 33.3735 0.0110332 32.7237 0.00533323 31.9751L0.0110332 18.0614C-0.0535668 17.3204 0.164933 16.6402 0.681733 16.1348C1.16623 15.6598 1.79893 15.4356 2.46773 15.4508H6.61923C8.29856 14.9157 9.89962 14.1606 11.3806 13.205C13.3718 11.9168 14.8386 10.07 15.3991 8.40563C15.591 7.83184 15.6936 7.35683 15.8874 6.23963C16.1496 4.74053 16.313 4.04324 16.6892 3.14644C17.4682 1.28063 18.4904 0.368635 19.9002 0.0627349C21.2872 -0.237465 23.3069 0.562435 24.5837 1.97603C25.9992 3.54164 26.6243 5.50054 26.3925 7.92114C26.2937 8.96234 26.0049 10.127 25.5299 11.4247C27.1521 11.1883 28.7972 11.1526 30.4281 11.3183C34.2414 11.7078 36.3827 14.1911 36.0711 17.3299C35.9343 18.6827 35.4441 19.8322 34.61 20.7347C35.3111 22.0856 35.5904 23.4213 35.4156 24.7247C35.2142 26.2257 34.3782 27.4759 32.9874 28.4468C32.8791 29.7635 32.577 30.8142 32.0412 31.6008C31.6191 32.2363 31.0682 32.7762 30.4243 33.1854C30.2191 34.485 29.7878 35.5015 29.0829 36.2159C27.9144 37.4053 25.8263 38.114 23.9187 37.9848C22.108 37.8632 21.0364 37.6428 18.5094 36.8448C16.8431 36.3185 13.3927 35.4445 8.19243 34.2285H2.50383ZM5.73573 17.4496C5.73523 17.2796 5.76828 17.1112 5.83299 16.954C5.89769 16.7969 5.99278 16.654 6.1128 16.5336C6.23283 16.4132 6.37543 16.3177 6.53243 16.2525C6.68943 16.1874 6.85774 16.1538 7.02773 16.1538C7.1974 16.1543 7.36531 16.1882 7.52187 16.2536C7.67843 16.319 7.82058 16.4146 7.9402 16.5349C8.05982 16.6553 8.15457 16.798 8.21904 16.9549C8.28351 17.1119 8.31643 17.28 8.31593 17.4496V32.0378C8.31618 32.2075 8.28301 32.3756 8.21831 32.5324C8.15361 32.6893 8.05866 32.8318 7.93886 32.952C7.81906 33.0721 7.67677 33.1675 7.52012 33.2327C7.36346 33.2978 7.1955 33.3315 7.02583 33.3317C6.85616 33.3315 6.68821 33.2978 6.53155 33.2327C6.37489 33.1675 6.2326 33.0721 6.11281 32.952C5.99301 32.8318 5.89805 32.6893 5.83335 32.5324C5.76865 32.3756 5.73548 32.2075 5.73573 32.0378V17.4496Z" fill="#FF6620"/>
</svg>
