<svg width="198" height="59" viewBox="0 0 198 59" fill="none" xmlns="http://www.w3.org/2000/svg">
<g clip-path="url(#clip0_287_910)">
<path d="M79.8409 15.742H73.4736V12.8188H85.0167L78.0252 24.3367H84.8384V27.2599H72.8818L79.8409 15.742Z" fill="#FF6620"/>
<path d="M101.314 24.1252C99.5877 26.3044 97.2086 27.6176 94.6227 27.646C89.5969 27.646 86.6787 23.8569 86.6787 20.0393C86.6787 16.2217 89.5929 12.4285 94.6227 12.4285C97.626 12.4285 102.088 14.9044 102.088 20.5434V21.1085H90.1319C90.3103 23.3161 92.3611 24.8977 94.5335 24.8977C96.1993 24.8977 97.626 24.0927 98.696 22.6616L101.314 24.1252ZM98.4569 18.5472C97.8044 16.3396 96.1669 15.1768 94.2012 15.1768C92.2355 15.1768 90.6304 16.4006 90.1279 18.5472H98.4569Z" fill="#FF6620"/>
<path d="M105.181 12.8147H108.273V20.9012C108.273 23.0194 109.821 24.5399 111.755 24.5399C113.688 24.5399 115.236 23.0194 115.236 20.9012V12.8147H118.329V21.1695C118.329 25.227 115.176 27.6419 111.755 27.6419C108.334 27.6419 105.181 25.227 105.181 21.1695V12.8147Z" fill="#FF6620"/>
<path d="M122.998 22.9625C124.101 24.1578 125.913 25.0807 127.522 25.0807C129.305 25.0807 130.379 24.0643 130.379 23.2593C130.379 22.3038 129.637 21.7956 128.506 21.5883L126.751 21.259C122.707 20.5109 121.576 19.2018 121.576 17.1405C121.576 14.693 123.627 12.4244 127.226 12.4244C129.22 12.4244 130.975 13.0221 132.936 14.4247L131.181 16.6039C129.666 15.3191 128.324 14.9939 127.315 14.9939C125.977 14.9939 124.668 15.6485 124.668 16.8153C124.668 17.6813 125.353 18.1285 126.541 18.3358L129.666 18.9335C132.223 19.4132 133.471 20.6329 133.471 22.7836C133.471 24.9343 131.745 27.646 127.372 27.646C124.932 27.646 122.848 26.7801 120.887 25.1091L122.998 22.9625Z" fill="#FF6620"/>
<path d="M85.2272 44.6239H85.1664C84.1855 45.9371 82.3981 46.7705 80.4364 46.7705C75.7065 46.7705 72.9707 42.8919 72.9707 39.1638C72.9707 35.4356 75.9173 31.553 80.5864 31.553C82.7264 31.553 84.3639 32.4799 85.1664 33.6996H85.2272V31.9392H88.3196V46.3802H85.2272V44.6198V44.6239ZM80.8255 43.8474C83.2655 43.8474 85.3487 41.7576 85.3487 39.1638C85.3487 36.5699 83.2655 34.4802 80.8255 34.4802C78.3856 34.4802 76.2456 36.5699 76.2456 39.1638C76.2456 41.7576 78.3288 43.8474 80.8255 43.8474Z" fill="#FF6620"/>
<path d="M105.991 44.7703C105.991 49.5433 102.363 52.2916 98.4642 52.2916C96.4701 52.2916 94.0301 51.4541 92.3967 49.4254L94.9258 47.5755C95.5216 48.409 96.8591 49.3644 98.3182 49.3644C101.472 49.3644 103.077 47.3072 103.077 45.0996V44.1442C101.767 45.6078 100.28 46.3803 98.1683 46.3803C94.4516 46.3803 91.1768 43.575 91.1768 39.0093C91.1768 34.4437 94.6867 31.549 98.5249 31.549C100.458 31.549 102.007 32.297 103.016 33.6387H103.077V31.9392H105.991V44.7703ZM98.7925 43.4571C101.293 43.4571 103.077 41.4568 103.077 38.9809C103.077 36.5049 101.143 34.4762 98.7925 34.4762C96.4417 34.4762 94.4516 36.4765 94.4516 38.9524C94.4516 41.4284 96.1782 43.4571 98.7925 43.4571Z" fill="#FF6620"/>
<path d="M109.914 31.9434H112.828V33.5249H112.889C113.396 32.3296 114.466 31.5571 115.714 31.5571C116.399 31.5571 116.995 31.736 117.408 32.0043L116.306 35.0779C116.01 34.8381 115.442 34.6592 115.147 34.6592C114.016 34.6592 113.007 35.5252 113.007 36.8383V46.3884H109.914V31.9474V31.9434Z" fill="#FF6620"/>
<path d="M125.62 31.553C130.646 31.553 133.564 35.3421 133.564 39.1638C133.564 42.9854 130.65 46.7705 125.62 46.7705C120.59 46.7705 117.676 42.9814 117.676 39.1638C117.676 35.3462 120.59 31.553 125.62 31.553ZM125.62 43.8474C128.327 43.8474 130.289 41.7576 130.289 39.1638C130.289 36.5699 128.327 34.4802 125.62 34.4802C122.912 34.4802 120.951 36.5699 120.951 39.1638C120.951 41.7576 122.912 43.8474 125.62 43.8474Z" fill="#FF6620"/>
<path d="M140.352 35.2243H134.881V31.9434H149.277V35.2243H143.806V46.3356H140.357V35.2243H140.352Z" fill="#FF6620"/>
<path d="M165.015 43.2497C163.289 45.4289 160.91 46.7421 158.324 46.7705C153.298 46.7705 150.38 42.9814 150.38 39.1638C150.38 35.3462 153.294 31.553 158.324 31.553C161.327 31.553 165.79 34.0289 165.79 39.6679V40.233H153.833C154.011 42.4407 156.062 44.0222 158.235 44.0222C159.901 44.0222 161.327 43.2172 162.397 41.7861L165.015 43.2497ZM162.158 37.6717C161.506 35.4641 159.868 34.3013 157.902 34.3013C155.937 34.3013 154.332 35.5251 153.829 37.6717H162.158Z" fill="#FF6620"/>
<path d="M179.502 36.6553C178.667 35.3706 177.508 34.4762 175.753 34.4762C173.045 34.4762 171.083 36.5659 171.083 39.1598C171.083 41.7536 173.045 43.8433 175.753 43.8433C177.447 43.8433 178.667 42.9774 179.502 41.6642L182.209 43.2741C180.928 45.3029 178.492 46.7665 175.753 46.7665C170.727 46.7665 167.809 42.9774 167.809 39.1598C167.809 35.3422 170.723 31.549 175.753 31.549C178.817 31.549 180.811 33.0126 182.209 35.0413L179.502 36.6513V36.6553Z" fill="#FF6620"/>
<path d="M184.852 27.646H187.944V33.7647H188.005C188.868 32.4231 190.445 31.5571 192.406 31.5571C195.442 31.5571 198 34.094 198 37.6758V46.3884H194.907V38.3629C194.907 35.7365 193.537 34.6632 191.486 34.6632C189.436 34.6632 187.948 35.948 187.948 38.3019V46.3884H184.856V27.6501L184.852 27.646Z" fill="#FF6620"/>
<path d="M50.2051 8.63939C49.9539 8.38732 49.6985 8.13932 49.4391 7.89539L43.546 14.2499C43.7284 14.4207 43.9107 14.5955 44.0891 14.7744C48.0084 18.7058 50.1687 23.9342 50.1687 29.4959C50.1687 35.0577 48.0084 40.286 44.0891 44.2175C40.1698 48.1489 34.9575 50.3159 29.413 50.3159C23.8684 50.3159 18.6561 48.1489 14.7368 44.2175C14.5585 44.0386 14.3842 43.8556 14.214 43.6727L7.875 49.5841C8.11818 49.8443 8.36542 50.1004 8.61671 50.3565C14.1735 55.9264 21.5581 58.9959 29.413 58.9959C37.2678 58.9959 44.6525 55.9264 50.2092 50.3565C55.7659 44.7826 58.8219 37.3751 58.8219 29.4959C58.8219 21.6168 55.7619 14.2093 50.2092 8.63533L50.2051 8.63939Z" fill="#0D1720"/>
<path d="M22.5637 9.83871L19.7185 1.64246C19.0416 1.87826 18.3607 2.14659 17.7041 2.43118L21.1451 10.3916C21.6112 10.1883 22.0855 10.0013 22.5637 9.83464V9.83871Z" fill="#0D1720"/>
<path d="M29.2996 8.68006L29.251 0C28.5336 0 27.8081 0.0325248 27.0947 0.0894432L27.7716 8.74104C28.2782 8.70039 28.7889 8.68006 29.2996 8.67599V8.68006Z" fill="#0D1720"/>
<path d="M19.4348 11.2332L15.2723 3.62646C14.64 3.97204 14.0159 4.35014 13.416 4.74044L18.1297 12.0179C18.5512 11.7414 18.993 11.4771 19.4389 11.2332H19.4348Z" fill="#0D1720"/>
<path d="M16.5771 13.1319L11.2149 6.31799C10.6556 6.76114 10.1003 7.23275 9.56934 7.72063L15.4098 14.1239C15.7867 13.7784 16.1799 13.445 16.5771 13.1319Z" fill="#0D1720"/>
<path d="M42.0624 12.9936L47.3516 6.12276C46.7842 5.68368 46.1924 5.25679 45.5926 4.86243L40.8262 12.1073C41.2477 12.3879 41.6652 12.6846 42.0624 12.9936Z" fill="#0D1720"/>
<path d="M39.1893 11.1276L43.2707 3.47613C42.6384 3.13869 41.9859 2.8175 41.3252 2.52478L37.8193 10.4608C38.2814 10.6682 38.7434 10.8918 39.1852 11.1317L39.1893 11.1276Z" fill="#0D1720"/>
<path d="M34.0948 0.374005C33.3855 0.260168 32.664 0.170725 31.9507 0.109741L31.209 8.75727C31.7156 8.802 32.2223 8.86298 32.7208 8.94429L34.0948 0.374005Z" fill="#0D1720"/>
<path d="M38.8081 1.54091C38.1272 1.31323 37.4301 1.10589 36.737 0.927002L34.5889 9.33466C35.0793 9.4607 35.5697 9.60706 36.052 9.76968L38.8081 1.54497V1.54091Z" fill="#0D1720"/>
<path d="M25.8824 8.9809L24.4193 0.42688C23.71 0.548848 23.0007 0.699275 22.3076 0.87003L24.3909 9.29396C24.8813 9.17199 25.3839 9.06628 25.8865 8.9809H25.8824Z" fill="#0D1720"/>
<path d="M8.73023 31.3254L0.109375 32.0816C0.170171 32.8013 0.263391 33.5249 0.376877 34.2323L8.91667 32.846C8.83561 32.3459 8.77481 31.8336 8.73023 31.3254Z" fill="#0D1720"/>
<path d="M9.31029 34.7162L0.932617 36.8791C1.11095 37.5743 1.31766 38.2736 1.54868 38.9566L9.74802 36.1798C9.5859 35.696 9.43999 35.2041 9.31434 34.7122L9.31029 34.7162Z" fill="#0D1720"/>
<path d="M14.0605 15.4817L7.66881 9.63135C7.1865 10.1639 6.71634 10.7209 6.27051 11.286L13.0715 16.6486C13.3836 16.2501 13.716 15.8558 14.0564 15.4817H14.0605Z" fill="#0D1720"/>
<path d="M12.0826 40.9731L4.86816 45.7665C5.26536 46.3641 5.68688 46.9577 6.12866 47.531L12.9702 42.2213C12.6581 41.8188 12.3623 41.4 12.0826 40.9772V40.9731Z" fill="#0D1720"/>
<path d="M10.4368 37.9606L2.5293 41.4854C2.82112 42.1441 3.14131 42.7986 3.48177 43.4329L11.1056 39.3307C10.8664 38.8835 10.6395 38.42 10.4368 37.9606Z" fill="#0D1720"/>
<path d="M10.3511 21.2306L2.41115 17.787C2.12743 18.4456 1.86398 19.1286 1.62891 19.8117L9.80393 22.6535C9.9701 22.1738 10.1565 21.694 10.3551 21.2306H10.3511Z" fill="#0D1720"/>
<path d="M8.71408 27.8859L0.0891673 27.2111C0.0324245 27.9307 0.00405306 28.6584 0 29.374L8.65328 29.4105C8.65328 28.9023 8.6776 28.3901 8.71408 27.8819V27.8859Z" fill="#0D1720"/>
<path d="M11.9643 18.2057L4.70121 13.4896C4.31212 14.0954 3.93924 14.7215 3.59473 15.3557L11.1861 19.5189C11.4252 19.0758 11.6887 18.6367 11.9643 18.2098V18.2057Z" fill="#0D1720"/>
<path d="M9.26077 24.483L0.858775 22.4095C0.688547 23.1088 0.538584 23.8203 0.416992 24.5277L8.94463 25.9873C9.02974 25.4872 9.13512 24.9831 9.25671 24.4871L9.26077 24.483Z" fill="#0D1720"/>
<path d="M29.4087 36.7084C33.3775 36.7084 36.5948 33.4811 36.5948 29.5001C36.5948 25.519 33.3775 22.2917 29.4087 22.2917C25.44 22.2917 22.2227 25.519 22.2227 29.5001C22.2227 33.4811 25.44 36.7084 29.4087 36.7084Z" fill="#0D1720"/>
</g>
<defs>
<clipPath id="clip0_287_910">
<rect width="198" height="59" fill="white"/>
</clipPath>
</defs>
</svg>
