<svg width="65" height="64" viewBox="0 0 65 64" fill="none" xmlns="http://www.w3.org/2000/svg">
<path d="M47.2637 4.15196C47.6295 4.30314 47.9421 4.55944 48.1622 4.8884C48.3822 5.21736 48.4996 5.6042 48.4997 5.99996V16H58.4997C58.8958 15.9993 59.2832 16.1162 59.6127 16.3359C59.9423 16.5556 60.1992 16.8682 60.3509 17.2341C60.5025 17.6 60.5421 18.0027 60.4647 18.3911C60.3872 18.7796 60.1961 19.1362 59.9157 19.416L51.9157 27.416C51.7296 27.6016 51.5088 27.7487 51.2658 27.8489C51.0229 27.9491 50.7625 28.0004 50.4997 28H39.3277L36.3677 30.964C36.5259 31.557 36.5456 32.1784 36.4254 32.7802C36.3052 33.382 36.0483 33.9482 35.6744 34.4349C35.3006 34.9217 34.8199 35.3159 34.2694 35.5873C33.7189 35.8587 33.1134 35.9999 32.4997 36C31.4388 36 30.4214 35.5785 29.6713 34.8284C28.9211 34.0782 28.4997 33.0608 28.4997 32L28.5037 31.816C28.5311 31.2185 28.6922 30.6347 28.9751 30.1077C29.258 29.5807 29.6555 29.1238 30.1383 28.7707C30.6211 28.4176 31.1769 28.1773 31.7649 28.0674C32.3529 27.9576 32.958 27.981 33.5357 28.136L36.4997 25.172V14C36.4992 13.7371 36.5506 13.4768 36.6508 13.2338C36.751 12.9909 36.8981 12.77 37.0837 12.584L45.0837 4.58396C45.3636 4.30443 45.7201 4.11419 46.1082 4.0373C46.4962 3.9604 46.8984 4.0003 47.2637 4.15196ZM49.6717 24L53.6717 20H46.4997C45.9693 20 45.4606 19.7892 45.0855 19.4142C44.7104 19.0391 44.4997 18.5304 44.4997 18V10.828L40.4997 14.828V24H49.6717ZM56.2797 28.704C56.9699 33.6845 56.0783 38.7561 53.7309 43.2026C51.3834 47.6492 47.6987 51.2462 43.1969 53.4858C38.6951 55.7255 33.6035 56.4946 28.641 55.6847C23.6785 54.8748 19.0957 52.5267 15.5396 48.972C11.9835 45.4172 9.63361 40.8354 8.82176 35.8732C8.00991 30.911 8.77707 25.8191 11.0149 21.3164C13.2528 16.8137 16.8484 13.1276 21.294 10.7785C25.7397 8.42932 30.8109 7.53576 35.7917 8.22396L34.2597 9.75596C33.6257 10.3901 33.1418 11.1582 32.8437 12.004L32.4997 12C28.5296 12.0006 24.6494 13.1827 21.3534 15.3959C18.0574 17.6092 15.4946 20.7533 13.9915 24.4279C12.4884 28.1025 12.1129 32.1413 12.9129 36.03C13.7129 39.9187 15.6522 43.4814 18.4837 46.2642C21.3153 49.0471 24.911 50.9243 28.8131 51.6567C32.7151 52.3891 36.7468 51.9436 40.3947 50.377C44.0427 48.8103 47.1419 46.1934 49.2976 42.8595C51.4533 39.5256 52.568 35.6255 52.4997 31.656C53.3422 31.358 54.1075 30.8756 54.7397 30.244L56.2797 28.704ZM32.4997 18C29.7308 18 27.024 18.821 24.7217 20.3594C22.4194 21.8977 20.625 24.0842 19.5654 26.6424C18.5058 29.2006 18.2285 32.0155 18.7687 34.7312C19.3089 37.447 20.6423 39.9415 22.6002 41.8995C24.5582 43.8574 27.0527 45.1908 29.7684 45.731C32.4842 46.2711 35.2991 45.9939 37.8573 44.9343C40.4154 43.8746 42.6019 42.0802 44.1403 39.7779C45.6786 37.4757 46.4997 34.7689 46.4997 32H42.4997C42.4997 33.9778 41.9132 35.9112 40.8144 37.5557C39.7156 39.2002 38.1538 40.4819 36.3265 41.2388C34.4993 41.9956 32.4886 42.1937 30.5488 41.8078C28.609 41.422 26.8272 40.4696 25.4286 39.071C24.0301 37.6725 23.0777 35.8907 22.6919 33.9509C22.306 32.0111 22.504 30.0004 23.2609 28.1731C24.0178 26.3459 25.2995 24.7841 26.944 23.6853C28.5885 22.5865 30.5219 22 32.4997 22V18Z" fill="#FF6620"/>
</svg>
