<svg width="442" height="424" viewBox="0 0 442 424" fill="none" xmlns="http://www.w3.org/2000/svg">
<g clip-path="url(#clip0_176_2081)">
<path d="M433.617 40.6523H300.831C293.678 40.6523 290.141 31.904 295.316 26.9849C305.098 17.6866 321.743 7.15863 346.652 7.68853C346.652 7.68853 372.58 7.66853 394.97 24.1654C394.97 24.1654 421.178 14.4972 437.724 30.6842C441.44 34.3235 438.813 40.6523 433.617 40.6523Z" fill="white"/>
<path d="M106.169 98.3215C111.045 98.3215 113.553 92.4526 110.156 88.9532C102.432 80.9847 88.4243 70.8167 67.2225 70.8167C43.1432 70.8167 23.64 82.6144 23.64 82.6144C23.64 82.6144 15.2971 82.5944 8.2332 86.2337C2.2983 89.2932 4.59634 98.3315 11.2706 98.3315H106.159L106.169 98.3215Z" fill="white"/>
<path d="M399.427 150.911C402.335 150.911 403.833 146.662 401.805 144.123C397.199 138.354 388.836 130.985 376.197 130.985C361.83 130.985 350.2 139.524 350.2 139.524C350.2 139.524 345.224 139.514 341.007 142.143C337.461 144.353 338.839 150.901 342.826 150.901H399.427V150.911Z" fill="white"/>
<path d="M116.649 212.97H82.3487C78.3221 212.97 76.4337 207.901 79.551 205.331C83.5676 202.022 89.8822 198.892 99.354 198.892C108.826 198.892 115.37 202.152 119.387 205.531C122.394 208.061 120.586 212.97 116.659 212.97H116.649Z" fill="white"/>
<path d="M89.4731 37.6729C79.077 37.6729 70.6492 29.2395 70.6492 18.8364C70.6492 8.43336 79.077 0 89.4731 0C99.8692 0 108.297 8.43336 108.297 18.8364C108.297 29.2395 99.8692 37.6729 89.4731 37.6729Z" fill="#F3C7B2"/>
<path d="M292.349 399.075C292.349 404.324 325.74 406.413 368.253 406.413C410.767 406.413 442 404.324 442 399.075C442 393.826 410.777 389.577 368.253 389.577C325.73 389.577 292.349 393.836 292.349 399.075Z" fill="#809B4C" fill-opacity="0.5"/>
<path d="M305.309 322.469H403.754V398.335H305.309V322.469Z" fill="#F8A37D"/>
<path d="M329.498 322.469H427.943V398.335H329.498V322.469Z" fill="#F3C7B2"/>
<path d="M418.859 338.396L413.444 326.988" stroke="#F8A37D" stroke-width="1.08" stroke-linecap="round" stroke-linejoin="round"/>
<path d="M394.422 334.817L400.656 325.609" stroke="#F8A37D" stroke-width="1.08" stroke-linecap="round" stroke-linejoin="round"/>
<path d="M377.557 338.936L371.162 324.979" stroke="#F8A37D" stroke-width="1.08" stroke-linecap="round" stroke-linejoin="round"/>
<path d="M416.643 366.951L410.258 359.972" stroke="#F8A37D" stroke-width="1.08" stroke-linecap="round" stroke-linejoin="round"/>
<path d="M376.836 355.323L372.29 345.395" stroke="#F8A37D" stroke-width="1.08" stroke-linecap="round" stroke-linejoin="round"/>
<path d="M399.137 392.036L394.591 382.108" stroke="#F8A37D" stroke-width="1.08" stroke-linecap="round" stroke-linejoin="round"/>
<path d="M341.977 338.346L337.43 328.418" stroke="#F8A37D" stroke-width="1.08" stroke-linecap="round" stroke-linejoin="round"/>
<path d="M354.625 393.686L350.079 383.758" stroke="#F8A37D" stroke-width="1.08" stroke-linecap="round" stroke-linejoin="round"/>
<path d="M380.782 373.82L385.568 367.371" stroke="#F8A37D" stroke-width="1.08" stroke-linecap="round" stroke-linejoin="round"/>
<path d="M412.655 394.076L417.451 387.637" stroke="#F8A37D" stroke-width="1.08" stroke-linecap="round" stroke-linejoin="round"/>
<path d="M343.226 377.039L348.021 370.6" stroke="#F8A37D" stroke-width="1.08" stroke-linecap="round" stroke-linejoin="round"/>
<path d="M366.615 377.309L362.069 367.371" stroke="#F8A37D" stroke-width="1.08" stroke-linecap="round" stroke-linejoin="round"/>
<path d="M360.43 344.315L363.178 338.396" stroke="#F8A37D" stroke-width="1.08" stroke-linecap="round" stroke-linejoin="round"/>
<path d="M366.845 390.856L370.852 394.776" stroke="#F8A37D" stroke-width="1.08" stroke-linecap="round" stroke-linejoin="round"/>
<path d="M331.306 342.535L335.312 346.455" stroke="#F8A37D" stroke-width="1.08" stroke-linecap="round" stroke-linejoin="round"/>
<path d="M348.012 319.81L344.455 325.889" stroke="#F8A37D" stroke-width="1.08" stroke-linecap="round" stroke-linejoin="round"/>
<path d="M333.944 360.182L336.691 354.263" stroke="#F8A37D" stroke-width="1.08" stroke-linecap="round" stroke-linejoin="round"/>
<path d="M336.051 388.627L338.799 382.708" stroke="#F8A37D" stroke-width="1.08" stroke-linecap="round" stroke-linejoin="round"/>
<path d="M382.742 385.657L378.386 381.538" stroke="#F8A37D" stroke-width="1.08" stroke-linecap="round" stroke-linejoin="round"/>
<path d="M356.703 333.437L352.357 329.318" stroke="#F8A37D" stroke-width="1.08" stroke-linecap="round" stroke-linejoin="round"/>
<path d="M384.92 325.879L379.485 319.61" stroke="#F8A37D" stroke-width="1.08" stroke-linecap="round" stroke-linejoin="round"/>
<path d="M362.039 359.282L357.683 355.163" stroke="#F8A37D" stroke-width="1.08" stroke-linecap="round" stroke-linejoin="round"/>
<path d="M411.037 380.698L403.584 374.779" stroke="#F8A37D" stroke-width="1.08" stroke-linecap="round" stroke-linejoin="round"/>
<path d="M387.846 357.223L390.594 351.304" stroke="#F8A37D" stroke-width="1.08" stroke-linecap="round" stroke-linejoin="round"/>
<path d="M429.961 384.607L421.608 376.779" stroke="#F8A37D" stroke-width="1.08" stroke-linecap="round" stroke-linejoin="round"/>
<path d="M347.032 361.552L349.779 355.633" stroke="#F8A37D" stroke-width="1.08" stroke-linecap="round" stroke-linejoin="round"/>
<path d="M397.249 367.371L403.584 363.461" stroke="#F8A37D" stroke-width="1.08" stroke-linecap="round" stroke-linejoin="round"/>
<path d="M420.929 361.932L427.264 358.022" stroke="#F8A37D" stroke-width="1.08" stroke-linecap="round" stroke-linejoin="round"/>
<path d="M389.215 343.005L404.502 341.736" stroke="#F8A37D" stroke-width="1.08" stroke-linecap="round" stroke-linejoin="round"/>
<path d="M424.096 333.577L433.428 332.797" stroke="#F8A37D" stroke-width="1.08" stroke-linecap="round" stroke-linejoin="round"/>
<path d="M420.238 345.395L405.071 351.304" stroke="#F8A37D" stroke-width="1.08" stroke-linecap="round" stroke-linejoin="round"/>
<path d="M324.852 328.738L321.514 334.017" stroke="#F3C7B2" stroke-width="1.62" stroke-linecap="round" stroke-linejoin="round"/>
<path d="M319.436 385.987L316.108 391.266" stroke="#F3C7B2" stroke-width="1.62" stroke-linecap="round" stroke-linejoin="round"/>
<path d="M359.941 317.69L363.178 328.418" stroke="#F3C7B2" stroke-width="1.62" stroke-linecap="round" stroke-linejoin="round"/>
<path d="M432.639 343.005L420.929 354.263" stroke="#F3C7B2" stroke-width="1.62" stroke-linecap="round" stroke-linejoin="round"/>
<path d="M429.961 372.34L420.239 367.371" stroke="#F3C7B2" stroke-width="1.62" stroke-linecap="round" stroke-linejoin="round"/>
<path d="M409.029 319.81L405.073 331.957" stroke="#F3C7B2" stroke-width="1.62" stroke-linecap="round" stroke-linejoin="round"/>
<path d="M324.48 349.934L319.854 344.495" stroke="#F3C7B2" stroke-width="1.62" stroke-linecap="round" stroke-linejoin="round"/>
<path d="M310.225 329.498L311.783 340.136" stroke="#F3C7B2" stroke-width="1.62" stroke-linecap="round" stroke-linejoin="round"/>
<path d="M315.26 350.174L308.306 354.133" stroke="#F3C7B2" stroke-width="1.62" stroke-linecap="round" stroke-linejoin="round"/>
<path d="M318.266 356.753L323.182 367.111" stroke="#F3C7B2" stroke-width="1.62" stroke-linecap="round" stroke-linejoin="round"/>
<path d="M314.73 371.1L310.384 376.199" stroke="#F3C7B2" stroke-width="1.62" stroke-linecap="round" stroke-linejoin="round"/>
<path d="M0.00050354 399.005C0.00050354 403.864 23.1206 405.803 52.8651 405.803C82.6095 405.803 104.73 403.864 104.73 399.005C104.73 394.146 82.6095 390.206 52.8651 390.206C23.1206 390.206 0.00050354 394.146 0.00050354 399.005Z" fill="#809B4C" fill-opacity="0.5"/>
<path d="M10.7717 313.801H78.9531V397.515H10.7717V313.801Z" fill="#F8A37D"/>
<path d="M27.5276 313.801H95.709V397.515H27.5276V313.801Z" fill="#F3C7B2"/>
<path d="M93.8507 373.47L99.0762 375.279" stroke="#F3C7B2" stroke-width="1.5" stroke-linecap="round" stroke-linejoin="round"/>
<path d="M89.0039 322.879L83.9982 312.321" stroke="#F8A37D" stroke-linecap="round" stroke-linejoin="round"/>
<path d="M66.3832 319.56L72.1582 311.041" stroke="#F8A37D" stroke-linecap="round" stroke-linejoin="round"/>
<path d="M50.7773 323.379L44.8624 310.461" stroke="#F8A37D" stroke-linecap="round" stroke-linejoin="round"/>
<path d="M86.9551 349.304L81.0402 342.845" stroke="#F8A37D" stroke-linecap="round" stroke-linejoin="round"/>
<path d="M50.1172 338.546L45.9108 329.358" stroke="#F8A37D" stroke-linecap="round" stroke-linejoin="round"/>
<path d="M57.541 389.037L53.3346 379.838" stroke="#F8A37D" stroke-linecap="round" stroke-linejoin="round"/>
<path d="M86.1074 381.738L81.891 372.54" stroke="#F8A37D" stroke-linecap="round" stroke-linejoin="round"/>
<path d="M53.765 355.663L58.2012 349.694" stroke="#F8A37D" stroke-linecap="round" stroke-linejoin="round"/>
<path d="M36.3294 390.406L40.7656 384.438" stroke="#F8A37D" stroke-linecap="round" stroke-linejoin="round"/>
<path d="M40.6562 358.882L36.4399 349.694" stroke="#F8A37D" stroke-linecap="round" stroke-linejoin="round"/>
<path d="M34.9309 328.358L37.4688 322.879" stroke="#F8A37D" stroke-linecap="round" stroke-linejoin="round"/>
<path d="M44.8615 362.901L48.5684 366.521" stroke="#F8A37D" stroke-linecap="round" stroke-linejoin="round"/>
<path d="M76.2248 385.607L79.9316 389.237" stroke="#F8A37D" stroke-linecap="round" stroke-linejoin="round"/>
<path d="M33.6614 372L36.1992 366.521" stroke="#F8A37D" stroke-linecap="round" stroke-linejoin="round"/>
<path d="M61.5781 366.611L57.5416 362.812" stroke="#F8A37D" stroke-linecap="round" stroke-linejoin="round"/>
<path d="M97.7168 389.417L93.6903 385.607" stroke="#F8A37D" stroke-linecap="round" stroke-linejoin="round"/>
<path d="M36.4199 342.205L32.3934 338.396" stroke="#F8A37D" stroke-linecap="round" stroke-linejoin="round"/>
<path d="M79.7715 362.022L72.8674 356.543" stroke="#F8A37D" stroke-linecap="round" stroke-linejoin="round"/>
<path d="M60.2999 340.296L62.8477 334.827" stroke="#F8A37D" stroke-linecap="round" stroke-linejoin="round"/>
<path d="M89.0049 363.871L91.5527 358.402" stroke="#F8A37D" stroke-linecap="round" stroke-linejoin="round"/>
<path d="M68.6612 378.019L71.209 372.54" stroke="#F8A37D" stroke-linecap="round" stroke-linejoin="round"/>
<path d="M67.0022 349.694L72.8672 346.075" stroke="#F8A37D" stroke-linecap="round" stroke-linejoin="round"/>
<path d="M90.9222 344.655L96.7871 341.036" stroke="#F8A37D" stroke-linecap="round" stroke-linejoin="round"/>
<path d="M61.5787 327.138L75.7266 325.969" stroke="#F8A37D" stroke-linecap="round" stroke-linejoin="round"/>
<path d="M90.2832 329.358L76.2453 334.827" stroke="#F8A37D" stroke-linecap="round" stroke-linejoin="round"/>
<path d="M99.0762 319.56L89.0048 322.879" stroke="#F3C7B2" stroke-width="1.5" stroke-linecap="round" stroke-linejoin="round"/>
<path d="M33.6624 311.041L41.7754 317.99" stroke="#F3C7B2" stroke-width="1.5" stroke-linecap="round" stroke-linejoin="round"/>
<path d="M60.2988 310.461L57.5412 317.99" stroke="#F3C7B2" stroke-width="1.5" stroke-linecap="round" stroke-linejoin="round"/>
<path d="M31.0254 333.807L22.6426 328.358" stroke="#F3C7B2" stroke-width="1.5" stroke-linecap="round" stroke-linejoin="round"/>
<path d="M31.0254 343.145L20.6942 352.623" stroke="#F3C7B2" stroke-width="1.5" stroke-linecap="round" stroke-linejoin="round"/>
<path d="M33.6621 381.738L21.3527 375.189" stroke="#F3C7B2" stroke-width="1.5" stroke-linecap="round" stroke-linejoin="round"/>
<path d="M14.9786 334.827L19.8145 341.036" stroke="#F3C7B2" stroke-width="1.5" stroke-linecap="round" stroke-linejoin="round"/>
<path d="M19.8145 317.99L16.7271 322.879" stroke="#F3C7B2" stroke-width="1.5" stroke-linecap="round" stroke-linejoin="round"/>
<path d="M18.2656 387.957L15.1883 392.846" stroke="#F3C7B2" stroke-width="1.5" stroke-linecap="round" stroke-linejoin="round"/>
<path d="M22.6426 361.182L15.189 366.571" stroke="#F3C7B2" stroke-width="1.5" stroke-linecap="round" stroke-linejoin="round"/>
<path d="M172.523 417.201C172.523 422.06 196.642 424 226.386 424C256.131 424 280.25 422.06 280.25 417.201C280.25 412.342 256.131 408.403 226.386 408.403C196.642 408.403 172.523 412.342 172.523 417.201Z" fill="#809B4C" fill-opacity="0.5"/>
<path d="M203.785 181.476C203.785 181.476 192.994 259.081 204.154 345.725H228.583C234.658 332.337 226.705 329.088 231.471 322.779C236.237 316.47 232.44 310.162 231.471 296.964C230.502 283.767 238.645 181.466 238.645 181.466H203.785V181.476Z" fill="#723231"/>
<path d="M224.008 395.845L225.117 412.722H181.545C181.545 412.722 180.096 405.494 189.038 404.174C197.981 402.854 200.039 403.434 202.057 400.754C203.206 399.235 204.695 393.636 204.745 392.256C204.775 391.426 205.444 390.756 206.283 390.756L222.479 394.306C223.329 394.306 224.018 394.996 224.018 395.845H224.008Z" fill="#003A49"/>
<path d="M226.704 415.546L179.754 415.554L179.753 412.735L226.703 412.726L226.704 415.546Z" fill="#003A49"/>
<path d="M206.172 399.765C206.172 400.135 205.872 400.435 205.502 400.435C205.133 400.435 204.833 400.135 204.833 399.765C204.833 399.395 205.133 399.095 205.502 399.095C205.872 399.095 206.172 399.395 206.172 399.765Z" fill="white"/>
<path d="M204.133 402.714C204.133 403.084 203.833 403.384 203.463 403.384C203.094 403.384 202.794 403.084 202.794 402.714C202.794 402.344 203.094 402.044 203.463 402.044C203.833 402.044 204.133 402.344 204.133 402.714Z" fill="white"/>
<path d="M200.316 404.534C200.316 404.904 200.017 405.204 199.647 405.204C199.277 405.204 198.978 404.904 198.978 404.534C198.978 404.164 199.277 403.864 199.647 403.864C200.017 403.864 200.316 404.164 200.316 404.534Z" fill="white"/>
<path d="M195.861 405.194C195.861 405.564 195.562 405.864 195.192 405.864C194.822 405.864 194.522 405.564 194.522 405.194C194.522 404.824 194.822 404.524 195.192 404.524C195.562 404.524 195.861 404.824 195.861 405.194Z" fill="white"/>
<path d="M225.057 412.332L181.474 412.342" stroke="white" stroke-width="0.87" stroke-miterlimit="10"/>
<path d="M204.375 394.286C204.734 392.256 204.155 345.735 204.155 345.735H228.584C228.584 345.735 227.725 372.97 223.948 399.775L204.375 394.296V394.286Z" fill="#003A49"/>
<path d="M265.371 395.845L266.48 412.722H222.908C222.908 412.722 221.459 405.494 230.401 404.174C239.344 402.854 241.402 403.434 243.42 400.754C244.569 399.235 246.058 393.636 246.108 392.256C246.138 391.426 246.807 390.756 247.647 390.756L263.843 394.306C264.692 394.306 265.381 394.996 265.381 395.845H265.371Z" fill="#003A49"/>
<path d="M268.067 415.543L221.117 415.551L221.117 412.732L268.066 412.724L268.067 415.543Z" fill="#003A49"/>
<path d="M247.535 399.765C247.535 400.135 247.235 400.435 246.866 400.435C246.496 400.435 246.196 400.135 246.196 399.765C246.196 399.395 246.496 399.095 246.866 399.095C247.235 399.095 247.535 399.395 247.535 399.765Z" fill="white"/>
<path d="M245.496 402.714C245.496 403.084 245.196 403.384 244.827 403.384C244.457 403.384 244.157 403.084 244.157 402.714C244.157 402.344 244.457 402.044 244.827 402.044C245.196 402.044 245.496 402.344 245.496 402.714Z" fill="white"/>
<path d="M241.68 404.534C241.68 404.904 241.38 405.204 241.01 405.204C240.641 405.204 240.341 404.904 240.341 404.534C240.341 404.164 240.641 403.864 241.01 403.864C241.38 403.864 241.68 404.164 241.68 404.534Z" fill="white"/>
<path d="M237.225 405.194C237.225 405.564 236.925 405.864 236.555 405.864C236.186 405.864 235.886 405.564 235.886 405.194C235.886 404.824 236.186 404.524 236.555 404.524C236.925 404.524 237.225 404.824 237.225 405.194Z" fill="white"/>
<path d="M266.42 412.332L222.837 412.342" stroke="white" stroke-width="0.87" stroke-miterlimit="10"/>
<path d="M245.738 394.286C246.098 392.256 244.089 343.255 244.089 343.255H268.518C268.518 343.255 269.088 372.98 265.311 399.775L245.738 394.296V394.286Z" fill="#003A49"/>
<path d="M231.42 229.667C237.215 291.035 244.089 343.255 244.089 343.255H268.518C268.518 343.255 274.623 329.778 273.034 319.77C271.446 309.762 276.142 312.841 273.414 295.125C270.677 277.408 270.267 250.463 270.667 238.905C271.066 227.357 271.546 200.282 266.5 181.476H224.506C224.506 181.476 230.291 217.549 231.43 229.667H231.42Z" fill="#723231"/>
<path d="M268.498 190.944H202.914" stroke="#0D1720" stroke-width="0.79" stroke-linecap="round" stroke-linejoin="round"/>
<path d="M233.758 253.352L229.691 225.258L217.322 215.309" stroke="#0D1720" stroke-width="0.79" stroke-linecap="round" stroke-linejoin="round"/>
<path d="M203.785 44.5815C203.785 44.5815 197.22 50.1105 220.171 52.62L225.146 44.8315L203.785 44.5815Z" fill="#49748A"/>
<path d="M224.089 64.0579C223.1 66.9973 219.912 68.587 216.975 67.5972C214.037 66.6074 212.449 63.418 213.438 60.4786C214.427 57.5391 217.614 55.9494 220.552 56.9392C223.489 57.929 225.078 61.1184 224.089 64.0579Z" fill="#D48865"/>
<path d="M221.31 42.192C216.854 48.8208 208.771 51.6602 218.083 62.7581L226.256 53.6199L221.31 42.192Z" fill="#723231"/>
<path d="M229.853 77.1054L229.523 98.7414L247.758 98.5514L246.429 63.468L229.853 77.1054Z" fill="#ECB690"/>
<path d="M229.674 89.4931L241.344 78.4652L229.804 79.2851L229.674 89.4931Z" fill="#0D1720"/>
<path d="M218.893 44.4616C218.893 44.4616 213.957 63.098 216.185 70.6666C218.413 78.2352 224.278 83.1343 234.079 81.5246C234.079 81.5246 245.39 81.3046 248.727 64.6277C253.753 39.5125 231.042 31.384 218.883 44.4616H218.893Z" fill="#ECB690"/>
<path d="M219.991 58.9689C219.791 59.6487 219.071 60.0387 218.392 59.8387C217.713 59.6387 217.323 58.9189 217.523 58.239C217.723 57.5591 218.442 57.1692 219.121 57.3692C219.801 57.5691 220.19 58.289 219.991 58.9689Z" fill="#0D1720"/>
<path d="M231.412 59.5687C231.213 60.2486 230.493 60.6385 229.814 60.4386C229.134 60.2386 228.745 59.5187 228.945 58.8389C229.144 58.159 229.864 57.7691 230.543 57.969C231.223 58.169 231.612 58.8889 231.412 59.5687Z" fill="#0D1720"/>
<path d="M221.919 61.3384L220.42 64.0879L221.969 64.9377" stroke="#0D1720" stroke-width="0.51" stroke-linecap="round" stroke-linejoin="round"/>
<path d="M233.23 50.5104C233.23 50.5104 237.107 51.2102 236.517 53.2198C236.517 53.2198 236.087 54.5696 232.74 53.8797C229.383 53.1899 228.014 52.57 228.274 51.2302C228.524 49.8905 231.471 50.0105 233.23 50.5204V50.5104Z" fill="#723231"/>
<path d="M218.463 49.5006C218.463 49.5006 215.826 49.6806 215.796 51.7002C215.796 51.7002 215.836 53.0199 218.054 52.82C220.751 52.58 221.92 52.1401 222.04 50.8203C222.16 49.4906 219.902 49.2406 218.453 49.5006H218.463Z" fill="#723231"/>
<path d="M226.615 69.5169C226.615 69.5169 222.779 73.1162 219.391 68.0372L222.659 66.1875L226.615 69.5269V69.5169Z" fill="white"/>
<path d="M233.199 65.9575L215.085 64.6877C215.085 64.6877 213.616 72.2463 221.819 67.7172C221.819 67.7172 230.621 74.4159 233.199 65.9575Z" fill="#723231"/>
<path d="M252.893 68.967L246.858 75.1458L244.64 68.6171L252.893 68.967Z" fill="#723231"/>
<path d="M244.031 63.9879L243.771 42.7919C243.771 42.7919 249.926 43.2718 251.045 51.6102C252.164 59.9486 249.247 61.3084 249.247 61.3084L244.031 63.9879Z" fill="#723231"/>
<path d="M256.08 48.3009C259.567 55.4895 264.773 61.3384 253.073 67.8872L245.539 55.8794L248.277 42.6119L256.08 48.3009Z" fill="#723231"/>
<path d="M256.201 68.0772C255.072 71.4365 251.435 73.2462 248.078 72.1164C244.721 70.9866 242.912 67.3473 244.042 63.9879C245.171 60.6286 248.807 58.8189 252.165 59.9487C255.522 61.0785 257.33 64.7178 256.201 68.0772Z" fill="#ECB690"/>
<path d="M253.064 64.2379C253.064 64.2379 248.398 62.7482 247 67.8872" stroke="#0D1720" stroke-width="0.51" stroke-linecap="round" stroke-linejoin="round"/>
<path d="M236.337 29.3245C236.247 31.0541 237.576 32.5239 239.304 32.6138C241.033 32.7038 242.501 31.3741 242.591 29.6444C242.681 27.9147 241.352 26.445 239.624 26.355C237.895 26.265 236.427 27.5948 236.337 29.3245Z" fill="#49748A"/>
<path d="M237.906 29.4044C248.727 29.8244 256.4 38.2528 256.08 48.3009L216.884 42.6219C219.532 35.0634 228.924 29.0545 237.906 29.4044Z" fill="#4CB4E5"/>
<path d="M242.271 46.3012C242.271 46.3012 229.443 38.8027 217.173 41.8321L203.785 44.5916C203.785 44.5916 214.935 44.7115 220.33 47.501C225.726 50.2905 237.965 49.2107 242.271 46.3112V46.3012Z" fill="#49748A"/>
<path d="M199.499 118.698L167.896 160.22C164.399 164.129 164.179 169.978 167.377 174.127C171.403 179.366 179.126 179.836 183.762 175.127L217.723 135.824C222.379 131.095 222.529 123.547 218.063 118.628C213.077 113.129 204.435 113.169 199.489 118.698H199.499Z" fill="#ECB690"/>
<path d="M214.977 102.951C214.977 102.951 199.53 104.88 187.7 127.816L205.864 149.612L214.967 102.951H214.977Z" fill="#FF6620"/>
<path d="M201.148 144.443L183.084 131.185L187.7 125.216L207.902 139.214L201.148 144.443Z" fill="#C74F18"/>
<path d="M189.568 161.919L146.256 134.735L137.623 143.643L169.026 175.847L189.568 161.919Z" fill="#ECB690"/>
<path d="M155.947 142.993L146.246 134.735L138.932 116.168C138.622 115.418 137.933 114.898 137.123 114.828C135.695 114.698 134.536 115.978 134.805 117.388V123.897L129.69 117.198C127.981 115.588 125.204 116.028 124.085 118.088L120.288 125.066C118.709 127.976 118.969 131.525 120.957 134.175C124.205 138.484 128.201 140.074 137.623 143.653L151.671 154.741L155.947 142.993Z" fill="#ECB690"/>
<path d="M129.738 60.0287H135.014V350.444H129.738V60.0287Z" fill="#723231"/>
<path d="M129.738 350.444H135.014V371.12H129.738V350.444Z" fill="#003A49"/>
<path d="M151.01 414.572V389.477C151.01 379.338 142.797 371.12 132.666 371.12C122.534 371.12 114.321 379.338 114.321 389.477V414.572" stroke="#003A49" stroke-width="2.38" stroke-miterlimit="10"/>
<path d="M132.375 414.572V362.172" stroke="#003A49" stroke-width="2.38" stroke-miterlimit="10"/>
<path d="M247.758 98.5514C247.758 98.5514 259.977 101.281 268.3 105.49C273.546 108.14 274.125 113.859 273.466 119.697L266.492 181.486H203.786L199.579 122.307C199 114.169 203.995 106.69 211.709 104.06C220.361 101.121 230.912 97.8216 235.518 97.5516L247.758 98.5614V98.5514Z" fill="#FF6620"/>
<path d="M247.758 98.5514L232.531 108.709L229.523 98.7414L247.758 98.5514Z" fill="#ECB690"/>
<path d="M247.757 98.5514L253.062 99.9111L238.645 117.758L232.53 108.709L247.757 98.5514Z" fill="#C74F18"/>
<path d="M232.529 108.709L225.635 115.248V99.6512L229.522 98.7413L232.529 108.709Z" fill="#C74F18"/>
<path d="M201.848 154.211L199.859 126.276" stroke="#0D1720" stroke-width="0.79" stroke-linecap="round" stroke-linejoin="round"/>
<path d="M305.127 142.633L274.063 188.384L282.426 197.543L316.717 163.929L305.127 142.633Z" fill="#ECB690"/>
<path d="M245.528 190.474L258.816 183.715L257.507 180.796C257.028 179.736 257.327 178.486 258.227 177.746C259.156 176.987 260.485 176.967 261.434 177.696L274.513 187.974L282.426 197.543C275.252 203.692 270.556 203.612 267.858 202.422C267.539 202.532 267.229 202.642 266.909 202.732L255.869 205.901C254.85 206.341 253.661 205.911 253.161 204.921C252.801 204.201 252.671 203.042 254.79 201.962L252.661 203.042C251.582 203.512 250.323 203.042 249.824 201.972C249.354 201.032 249.934 199.792 251.183 198.972L249.554 199.612C248.375 200.122 246.986 199.542 246.547 198.293C246.167 197.213 246.736 196.013 247.756 195.503L250.104 194.313L247.316 194.993C246.037 195.443 244.598 194.763 244.179 193.413C243.819 192.264 244.438 191.014 245.518 190.474H245.528Z" fill="#ECB690"/>
<path d="M249.414 194.653L257.268 190.944" stroke="#0D1720" stroke-width="0.51" stroke-linecap="round" stroke-linejoin="round"/>
<path d="M251.522 198.842L259.096 195.693" stroke="#0D1720" stroke-width="0.51" stroke-linecap="round" stroke-linejoin="round"/>
<path d="M254.091 202.242L260.506 199.712" stroke="#0D1720" stroke-width="0.51" stroke-linecap="round" stroke-linejoin="round"/>
<path d="M261.565 130.025L301.061 164.109C304.748 167.838 310.563 168.408 314.909 165.469C320.385 161.759 321.324 154.071 316.908 149.162L279.77 112.849C275.333 107.91 267.81 107.3 262.634 111.459C256.849 116.108 256.36 124.746 261.575 130.015L261.565 130.025Z" fill="#ECB690"/>
<path d="M260.695 102.311C260.695 102.311 276.551 105.4 296.244 128.976L279.379 150.802L253.691 132.395L260.695 102.311Z" fill="#FF6620"/>
<path d="M279.879 151.131L273.035 146.222L291.499 121.567L297.684 127.626L279.879 151.131Z" fill="#C74F18"/>
<path d="M270.656 144.553L255.759 133.875" stroke="#0D1720" stroke-width="0.79" stroke-linecap="round" stroke-linejoin="round"/>
</g>
<defs>
<clipPath id="clip0_176_2081">
<rect width="442" height="424" fill="white" transform="matrix(-1 0 0 1 442 0)"/>
</clipPath>
</defs>
</svg>
