<svg width="36" height="37" viewBox="0 0 36 37" fill="none" xmlns="http://www.w3.org/2000/svg">
<g clip-path="url(#clip0_23_406)">
<path d="M36 9.75635V27.2446C35.9775 27.3247 35.9418 27.4029 35.9343 27.485C35.8666 28.2187 35.6938 28.9263 35.4628 29.6214C34.8513 31.4605 33.7129 32.9183 32.3519 34.2235C31.1403 35.3858 29.7502 36.2045 28.1497 36.6582C27.6077 36.8117 27.0489 36.8533 26.5088 37H9.49407C9.41705 36.9768 9.34097 36.9392 9.26207 36.9315C8.63089 36.8706 8.01943 36.7152 7.41642 36.5231C5.56138 35.9323 4.08299 34.767 2.77647 33.3295C0.953367 31.3263 -0.00467912 28.9804 1.7183e-05 26.2213C0.00940979 21.0197 0.00471349 15.8181 0.00189571 10.6165C0.00189571 9.65885 0.142785 8.72723 0.40296 7.8101C0.969335 5.81848 2.13496 4.24005 3.58424 2.84214C5.51442 0.979883 7.78461 0.00482701 10.4352 0.00289621C15.5082 -0.0019308 20.5802 0.00289621 25.6531 0C26.5839 0 27.4913 0.147707 28.3836 0.411261C30.3494 0.990503 31.9048 2.20305 33.2715 3.72066C34.4136 4.98727 35.2373 6.42958 35.6816 8.10069C35.8263 8.64614 35.8666 9.20994 35.9991 9.75635H36ZM33.1879 18.5164C33.1879 15.9755 33.1879 13.4345 33.1879 10.8936C33.1879 10.1078 33.0939 9.33544 32.8685 8.58242C32.4506 7.18356 31.6043 6.08783 30.603 5.07801C29.1763 3.63957 27.4809 2.90007 25.4934 2.89524C20.5022 2.88462 15.511 2.89041 10.5197 2.89331C9.87447 2.89331 9.23953 2.98502 8.6121 3.14818C7.04917 3.55268 5.86195 4.53642 4.78837 5.71228C3.4781 7.14784 2.81592 8.84308 2.81498 10.8086C2.81217 15.9388 2.8131 21.0689 2.81498 26.1991C2.81498 26.8633 2.89388 27.5178 3.06013 28.1608C3.44617 29.6523 4.30747 30.8205 5.36132 31.8872C6.81248 33.3575 8.53414 34.1077 10.5611 34.1096C15.5166 34.1154 20.4731 34.1115 25.4286 34.1115C25.9809 34.1115 26.5276 34.0546 27.0667 33.9358C28.5451 33.6095 29.7333 32.7947 30.8097 31.7202C32.4026 30.1302 33.2132 28.2457 33.1926 25.9597C33.17 23.4795 33.1869 20.9985 33.1869 18.5174L33.1879 18.5164Z" fill="#FF6620"/>
<path d="M21.3896 19.9452C21.2637 19.9452 21.1378 19.9452 21.0129 19.9452C17.6964 19.9452 14.3808 19.9471 11.0643 19.9442C10.3279 19.9442 9.75023 19.4094 9.65067 18.6545C9.56144 17.9797 10.0236 17.2981 10.6979 17.0963C10.8604 17.048 11.0229 17.0567 11.1854 17.0567C14.4663 17.0558 17.7471 17.0567 21.0279 17.0538C21.15 17.0538 21.2797 17.0896 21.4224 17.0094C21.336 16.9138 21.2618 16.827 21.182 16.7449C20.2624 15.7988 19.3401 14.8566 18.4243 13.9076C17.7959 13.2569 17.7762 12.3909 18.3661 11.7876C18.954 11.1861 19.7947 11.2103 20.4287 11.8609C22.2293 13.7068 24.027 15.5546 25.8229 17.4052C26.47 18.0723 26.4775 18.9209 25.837 19.5813C24.0261 21.4503 22.2105 23.3145 20.3939 25.1767C19.9788 25.6025 19.4782 25.7598 18.9146 25.5629C18.3849 25.3775 18.0608 24.9788 17.9631 24.4121C17.8739 23.8985 18.0571 23.468 18.4093 23.1059C19.3213 22.1695 20.2314 21.2311 21.1444 20.2966C21.2355 20.2039 21.3445 20.1296 21.445 20.0466C21.4262 20.0128 21.4074 19.979 21.3886 19.9452H21.3896Z" fill="#FF6620"/>
</g>
<defs>
<clipPath id="clip0_23_406">
<rect width="36" height="37" fill="white"/>
</clipPath>
</defs>
</svg>
