<svg width="32" height="32" viewBox="0 0 32 32" fill="none" xmlns="http://www.w3.org/2000/svg">
<path d="M8.66634 26.6666C6.63967 26.6666 4.91079 25.9689 3.47967 24.5733C2.04856 23.1689 1.33301 21.4578 1.33301 19.44C1.33301 17.7066 1.85301 16.16 2.89301 14.8C3.9419 13.44 5.31079 12.5733 6.99967 12.2C7.55967 10.1555 8.67079 8.5022 10.333 7.23998C12.0041 5.96887 13.893 5.33331 15.9997 5.33331C18.6041 5.33331 20.8086 6.23998 22.613 8.05331C24.4263 9.85776 25.333 12.0622 25.333 14.6666C26.8708 14.8444 28.1419 15.5111 29.1463 16.6666C30.1597 17.8044 30.6663 19.1378 30.6663 20.6666C30.6663 22.3378 30.0841 23.7555 28.9197 24.92C27.7552 26.0844 26.3375 26.6666 24.6663 26.6666H17.333C16.6041 26.6666 15.9775 26.4044 15.453 25.88C14.9286 25.3644 14.6663 24.7378 14.6663 24V17.1333L12.533 19.2L10.6663 17.3333L15.9997 12L21.333 17.3333L19.4663 19.2L17.333 17.1333V24H24.6663C25.5997 24 26.3863 23.6755 27.0263 23.0266C27.6752 22.3866 27.9997 21.6 27.9997 20.6666C27.9997 19.7333 27.6752 18.9466 27.0263 18.3066C26.3863 17.6578 25.5997 17.3333 24.6663 17.3333H22.6663V14.6666C22.6663 12.8266 22.0175 11.2533 20.7197 9.94665C19.4219 8.64887 17.8486 7.99998 15.9997 7.99998C14.1597 7.99998 12.5863 8.64887 11.2797 9.94665C9.9819 11.2533 9.33301 12.8266 9.33301 14.6666H8.66634C7.37745 14.6666 6.27968 15.1244 5.37301 16.04C4.45745 16.9466 3.99967 18.0444 3.99967 19.3333C3.99967 20.6222 4.45745 21.7333 5.37301 22.6666C6.27968 23.5555 7.37745 24 8.66634 24H11.9997V26.6666" fill="#7C858C"/>
</svg>
