<svg width="38" height="38" viewBox="0 0 38 38" fill="none" xmlns="http://www.w3.org/2000/svg">
<path d="M27.7658 2.46525C27.983 2.55501 28.1686 2.70718 28.2992 2.90251C28.4299 3.09783 28.4996 3.32752 28.4997 3.5625V9.5H34.4372C34.6724 9.49958 34.9024 9.56899 35.098 9.69945C35.2937 9.8299 35.4462 10.0155 35.5363 10.2328C35.6263 10.45 35.6499 10.6891 35.6039 10.9197C35.5579 11.1504 35.4444 11.3622 35.2779 11.5282L30.5279 16.2782C30.4174 16.3885 30.2863 16.4758 30.1421 16.5353C29.9978 16.5948 29.8432 16.6253 29.6872 16.625H23.0538L21.2963 18.3849C21.3902 18.737 21.4019 19.1059 21.3306 19.4633C21.2592 19.8206 21.1066 20.1568 20.8847 20.4458C20.6627 20.7348 20.3773 20.9689 20.0504 21.13C19.7236 21.2911 19.3641 21.3749 18.9997 21.375C18.3698 21.375 17.7657 21.1248 17.3203 20.6794C16.8749 20.234 16.6247 19.6299 16.6247 19L16.6271 18.8907C16.6433 18.536 16.739 18.1894 16.9069 17.8765C17.0749 17.5635 17.3109 17.2923 17.5976 17.0826C17.8842 16.873 18.2143 16.7303 18.5634 16.6651C18.9125 16.5998 19.2718 16.6137 19.6148 16.7057L21.3747 14.9459V8.3125C21.3744 8.15645 21.4049 8.00187 21.4644 7.85761C21.5239 7.71335 21.6112 7.58223 21.7214 7.47175L26.4714 2.72175C26.6376 2.55578 26.8493 2.44282 27.0797 2.39716C27.3101 2.35151 27.5489 2.3752 27.7658 2.46525ZM29.1956 14.25L31.5706 11.875H27.3122C26.9972 11.875 26.6952 11.7499 26.4725 11.5272C26.2498 11.3045 26.1247 11.0024 26.1247 10.6875V6.42912L23.7497 8.80412V14.25H29.1956ZM33.1191 17.043C33.5288 20.0002 32.9995 23.0114 31.6057 25.6516C30.2119 28.2917 28.0241 30.4275 25.3511 31.7572C22.6782 33.087 19.6551 33.5437 16.7086 33.0628C13.7621 32.5819 11.0411 31.1878 8.92962 29.0771C6.81816 26.9665 5.42293 24.246 4.94089 21.2997C4.45886 18.3534 4.91436 15.3301 6.2431 12.6567C7.57184 9.98318 9.7067 7.79455 12.3463 6.39974C14.9859 5.00493 17.9969 4.47438 20.9543 4.883L20.0447 5.79262C19.6682 6.16912 19.3809 6.62522 19.2039 7.12737L18.9997 7.125C16.6424 7.12535 14.3386 7.82726 12.3815 9.14136C10.4245 10.4555 8.9029 12.3223 8.01043 14.5041C7.11795 16.6859 6.89502 19.0839 7.37002 21.3928C7.84501 23.7018 8.99645 25.8171 10.6777 27.4694C12.3589 29.1217 14.4939 30.2363 16.8107 30.6712C19.1275 31.106 21.5214 30.8415 23.6874 29.9114C25.8533 28.9812 27.6935 27.4274 28.9734 25.4479C30.2534 23.4683 30.9152 21.1527 30.8747 18.7957C31.3749 18.6188 31.8293 18.3324 32.2047 17.9574L33.1191 17.043ZM18.9997 10.6875C17.3556 10.6875 15.7485 11.175 14.3815 12.0884C13.0145 13.0018 11.9491 14.3 11.3199 15.8189C10.6908 17.3379 10.5262 19.0092 10.8469 20.6217C11.1676 22.2342 11.9593 23.7153 13.1219 24.8778C14.2844 26.0403 15.7655 26.832 17.378 27.1528C18.9905 27.4735 20.6618 27.3089 22.1807 26.6797C23.6996 26.0506 24.9979 24.9852 25.9113 23.6182C26.8247 22.2512 27.3122 20.6441 27.3122 19H24.9372C24.9372 20.1743 24.5889 21.3223 23.9365 22.2987C23.2841 23.2751 22.3568 24.0361 21.2719 24.4855C20.1869 24.9349 18.9931 25.0525 17.8413 24.8234C16.6896 24.5943 15.6316 24.0288 14.8012 23.1984C13.9709 22.3681 13.4054 21.3101 13.1763 20.1583C12.9472 19.0066 13.0647 17.8127 13.5141 16.7278C13.9635 15.6429 14.7246 14.7156 15.701 14.0631C16.6774 13.4107 17.8254 13.0625 18.9997 13.0625V10.6875Z" fill="#FF6620"/>
</svg>
