<svg width="65" height="64" viewBox="0 0 65 64" fill="none" xmlns="http://www.w3.org/2000/svg">
<g clip-path="url(#clip0_158_681)">
<path d="M12.9 2.8C13.0863 2.55161 13.3279 2.35 13.6056 2.21115C13.8833 2.07229 14.1895 2 14.5 2H50.5C50.8105 2 51.1167 2.07229 51.3944 2.21115C51.6721 2.35 51.9137 2.55161 52.1 2.8L64.004 18.696C64.6 19.436 64.628 20.496 64.044 21.272L34.1 61.2C33.9137 61.4484 33.6721 61.65 33.3944 61.7889C33.1167 61.9277 32.8105 62 32.5 62C32.1895 62 31.8833 61.9277 31.6056 61.7889C31.3279 61.65 31.0863 61.4484 30.9 61.2L0.9 21.2C0.640356 20.8538 0.5 20.4327 0.5 20C0.5 19.5673 0.640356 19.1462 0.9 18.8L12.9 2.8ZM58.444 17.94L51.22 8.3L48.116 17.952L58.444 17.94ZM43.912 17.956L47.756 6H17.244L21.096 17.98L43.912 17.956ZM22.38 21.98L32.5 53.464L42.628 21.96L22.38 21.98ZM16.896 17.984L13.776 8.296L6.504 17.996L16.896 17.984ZM6.496 22L26.948 49.268L18.18 21.988L6.5 22H6.496ZM38.052 49.268L58.544 21.948L46.832 21.956L38.052 49.268Z" fill="#FF6620"/>
</g>
<defs>
<clipPath id="clip0_158_681">
<rect width="64" height="64" fill="white" transform="translate(0.5)"/>
</clipPath>
</defs>
</svg>
