<svg width="65" height="64" viewBox="0 0 65 64" fill="none" xmlns="http://www.w3.org/2000/svg">
<path d="M48.5823 44.312L60.0037 55.7307L56.2303 59.504L44.8117 48.0827C40.563 51.4886 35.2783 53.3411 29.833 53.3334C16.585 53.3334 5.83301 42.5814 5.83301 29.3334C5.83301 16.0854 16.585 5.33337 29.833 5.33337C43.081 5.33337 53.833 16.0854 53.833 29.3334C53.8408 34.7787 51.9883 40.0633 48.5823 44.312ZM43.233 42.3334C46.6173 38.8531 48.5073 34.1879 48.4997 29.3334C48.4997 19.0187 40.145 10.6667 29.833 10.6667C19.5183 10.6667 11.1663 19.0187 11.1663 29.3334C11.1663 39.6454 19.5183 48 29.833 48C34.6875 48.0077 39.3527 46.1177 42.833 42.7334L43.233 42.3334ZM32.9743 19.136C32.188 19.4912 31.4996 20.0319 30.9682 20.7117C30.4368 21.3914 30.0782 22.1899 29.9233 23.0387C29.7683 23.8875 29.8216 24.7613 30.0786 25.5849C30.3356 26.4086 30.7885 27.1576 31.3986 27.7677C32.0088 28.3778 32.7578 28.8308 33.5815 29.0878C34.4051 29.3448 35.2788 29.3981 36.1276 29.2431C36.9764 29.0882 37.775 28.7296 38.4547 28.1982C39.1345 27.6668 39.6751 26.9784 40.0303 26.192C40.7311 28.4684 40.6499 30.9138 39.7996 33.1386C38.9493 35.3634 37.3789 37.2396 35.3385 38.4683C33.2981 39.697 30.9052 40.2074 28.5411 39.9183C26.1769 39.6292 23.9775 38.5572 22.2934 36.873C20.6092 35.1888 19.5372 32.9895 19.2481 30.6253C18.9589 28.2612 19.4694 25.8683 20.6981 23.8279C21.9268 21.7875 23.803 20.2171 26.0278 19.3668C28.2526 18.5165 30.698 18.4352 32.9743 19.136Z" fill="#FF6620"/>
</svg>
