<svg width="48" height="48" viewBox="0 0 48 48" fill="none" xmlns="http://www.w3.org/2000/svg">
<path d="M34.5 40.77L30.615 36.885L28.5 39L34.5 45L45 34.5L42.885 32.385L34.5 40.77Z" fill="#F4F3F2"/>
<path d="M16.5 13.5C17.3284 13.5 18 12.8284 18 12C18 11.1716 17.3284 10.5 16.5 10.5C15.6716 10.5 15 11.1716 15 12C15 12.8284 15.6716 13.5 16.5 13.5Z" fill="#F4F3F2"/>
<path d="M16.5 25.5C17.3284 25.5 18 24.8284 18 24C18 23.1716 17.3284 22.5 16.5 22.5C15.6716 22.5 15 23.1716 15 24C15 24.8284 15.6716 25.5 16.5 25.5Z" fill="#F4F3F2"/>
<path d="M16.5 37.5C17.3284 37.5 18 36.8284 18 36C18 35.1716 17.3284 34.5 16.5 34.5C15.6716 34.5 15 35.1716 15 36C15 36.8284 15.6716 37.5 16.5 37.5Z" fill="#F4F3F2"/>
<path d="M36 4.5H12C11.2044 4.5 10.4413 4.81607 9.87868 5.37868C9.31607 5.94129 9 6.70435 9 7.5V40.5C9 41.2957 9.31607 42.0587 9.87868 42.6213C10.4413 43.1839 11.2044 43.5 12 43.5H24V40.5H12V31.5H39V7.5C39 6.70435 38.6839 5.94129 38.1213 5.37868C37.5587 4.81607 36.7956 4.5 36 4.5ZM36 28.5H12V19.5H36V28.5ZM36 16.5H12V7.5H36V16.5Z" fill="#F4F3F2"/>
</svg>
