<svg width="48" height="48" viewBox="0 0 48 48" fill="none" xmlns="http://www.w3.org/2000/svg">
<path d="M10.5 7.5V18.375C8.478 18.8325 6.627 19.6995 5.0625 20.9535L6.9375 23.2965C8.79818 21.8034 11.1143 20.9929 13.5 21C19.3185 21 24 25.6815 24 31.5H30.8445C30.299 32.4061 30.0073 33.4423 30 34.5C30 37.8 32.7 40.5 36 40.5C39.3 40.5 42 37.8 42 34.5C42 32.9595 41.373 31.5825 40.4055 30.516L43.4055 23.0625L43.5 22.7805V19.5H36V15C36 14.151 36.651 13.5 37.5 13.5V10.5C35.0325 10.5 33 12.5325 33 15V19.5H28.0305L23.9055 8.484L23.5305 7.5H10.5ZM13.5 10.5H21.4695L25.5945 21.516L25.9695 22.5H40.359L37.9695 28.5H26.625C25.248 22.506 19.905 18 13.5 18V10.5ZM13.5 22.5C8.55 22.5 4.5 26.55 4.5 31.5C4.5 36.45 8.55 40.5 13.5 40.5C18.45 40.5 22.5 36.45 22.5 31.5C22.5 26.55 18.45 22.5 13.5 22.5ZM13.5 25.5C16.8345 25.5 19.5 28.1655 19.5 31.5C19.5 34.8345 16.8345 37.5 13.5 37.5C10.1655 37.5 7.5 34.8345 7.5 31.5C7.5 28.1655 10.1655 25.5 13.5 25.5ZM13.5 28.5C12.7044 28.5 11.9413 28.8161 11.3787 29.3787C10.8161 29.9413 10.5 30.7044 10.5 31.5C10.5 32.2956 10.8161 33.0587 11.3787 33.6213C11.9413 34.1839 12.7044 34.5 13.5 34.5C14.2956 34.5 15.0587 34.1839 15.6213 33.6213C16.1839 33.0587 16.5 32.2956 16.5 31.5C16.5 30.7044 16.1839 29.9413 15.6213 29.3787C15.0587 28.8161 14.2956 28.5 13.5 28.5ZM36 31.5C37.6755 31.5 39 32.8245 39 34.5C39 36.1755 37.6755 37.5 36 37.5C34.3245 37.5 33 36.1755 33 34.5C33 32.8245 34.3245 31.5 36 31.5Z" fill="#F4F3F2"/>
</svg>
