<svg width="48" height="48" viewBox="0 0 48 48" fill="none" xmlns="http://www.w3.org/2000/svg">
<path d="M20 33L26 35C26 35 41 32 43 32C45 32 45 34 43 36C41 38 34 44 28 44C22 44 18 41 14 41H4" stroke="#F4F3F2" stroke-width="2" stroke-linecap="round" stroke-linejoin="round"/>
<path d="M4 29C6 27 10 24 14 24C18 24 27.5 28 29 30C30.5 32 26 35 26 35" stroke="#F4F3F2" stroke-width="2" stroke-linecap="round" stroke-linejoin="round"/>
<path d="M34 25C35.6569 25 37 23.6569 37 22C37 20.3431 35.6569 19 34 19C32.3431 19 31 20.3431 31 22C31 23.6569 32.3431 25 34 25Z" stroke="#F4F3F2" stroke-width="2"/>
<path d="M22 18C23.6569 18 25 16.6569 25 15C25 13.3431 23.6569 12 22 12C20.3431 12 19 13.3431 19 15C19 16.6569 20.3431 18 22 18Z" stroke="#F4F3F2" stroke-width="2"/>
<path d="M34 10C35.6569 10 37 8.65685 37 7C37 5.34315 35.6569 4 34 4C32.3431 4 31 5.34315 31 7C31 8.65685 32.3431 10 34 10Z" stroke="#F4F3F2" stroke-width="2"/>
</svg>
