<svg width="48" height="48" viewBox="0 0 48 48" fill="none" xmlns="http://www.w3.org/2000/svg">
<path d="M31.3201 22.4C30.8601 21.8 30.3001 21.28 29.7801 20.76C28.4401 19.56 26.9201 18.7 25.6401 17.44C22.6601 14.52 22.0001 9.7 23.9001 6C22.0001 6.46 20.3401 7.5 18.9201 8.64C13.7401 12.8 11.7001 20.14 14.1401 26.44C14.2201 26.64 14.3001 26.84 14.3001 27.1C14.3001 27.54 14.0001 27.94 13.6001 28.1C13.1401 28.3 12.6601 28.18 12.2801 27.86C12.1659 27.7656 12.0709 27.6502 12.0001 27.52C9.7401 24.66 9.3801 20.56 10.9001 17.28C7.5601 20 5.7401 24.6 6.0001 28.94C6.1201 29.94 6.2401 30.94 6.5801 31.94C6.8601 33.14 7.4001 34.34 8.0001 35.4C10.1601 38.86 13.9001 41.34 17.9201 41.84C22.2001 42.38 26.7801 41.6 30.0601 38.64C33.7201 35.32 35.0001 30 33.1201 25.44L32.8601 24.92C32.4401 24 31.3201 22.4 31.3201 22.4ZM25.0001 35C24.4401 35.48 23.5201 36 22.8001 36.2C20.5601 37 18.3201 35.88 17.0001 34.56C19.3801 34 20.8001 32.24 21.2201 30.46C21.5601 28.86 20.9201 27.54 20.6601 26C20.4201 24.52 20.4601 23.26 21.0001 21.88C21.3801 22.64 21.7801 23.4 22.2601 24C23.8001 26 26.2201 26.88 26.7401 29.6C26.8201 29.88 26.8601 30.16 26.8601 30.46C26.9201 32.1 26.2001 33.9 25.0001 35ZM42.0001 26H38.0001V14H42.0001V26ZM42.0001 34H38.0001V30H42.0001V34Z" fill="#FF6620"/>
</svg>
