<svg width="48" height="49" viewBox="0 0 48 49" fill="none" xmlns="http://www.w3.org/2000/svg">
<path d="M32.9204 19.32L26.0004 15.26V10.74L29.4204 7.32L26.5804 4.5L24.0004 7.08L21.4204 4.5L18.5804 7.32L22.0004 10.74V15.26L17.0004 18.14L13.0004 15.88L11.8404 11.22L8.00039 12.26L8.94039 15.8L5.40039 16.74L6.44039 20.6L11.1004 19.36L15.1004 21.62V27.4L11.1004 29.66L6.44039 28.42L5.40039 32.28L8.94039 33.22L8.00039 36.74L11.8604 37.78L13.1004 33.12L17.1004 30.86L22.0004 33.74V38.26L18.5804 41.68L21.4204 44.5L24.0004 41.92L26.5804 44.5L29.4004 41.68L26.0004 38.26V33.74L32.9204 29.72M19.0004 21.62L24.0004 18.72L29.0004 21.62V27.38L24.0004 30.28L19.0004 27.38M38.0004 26.5V14.5H42.0004V26.5H38.0004ZM38.0004 34.5V30.5H42.0004V34.5H38.0004Z" fill="#FF6620"/>
</svg>
