<svg width="48" height="49" viewBox="0 0 48 49" fill="none" xmlns="http://www.w3.org/2000/svg">
<path d="M8 28.1C8 24.7667 9.32533 21.142 11.976 17.226C14.6253 13.3087 18.6333 9.06667 24 4.5C27.9333 7.83333 31.1253 11 33.576 14C36.0253 17 37.7833 19.85 38.85 22.55H34.5C33.5667 20.65 32.2333 18.6413 30.5 16.524C28.7667 14.408 26.6 12.1667 24 9.8C20.0333 13.4333 17.042 16.7833 15.026 19.85C13.0087 22.9167 12 25.6667 12 28.1C12 31.6667 13.1333 34.6253 15.4 36.976C17.6667 39.3253 20.5333 40.5 24 40.5V44.5C19.4333 44.5 15.6253 42.9333 12.576 39.8C9.52533 36.6667 8 32.7667 8 28.1ZM29.6 45.45L28.75 43.55C28.4833 42.9833 28.292 42.392 28.176 41.776C28.0587 41.1587 28 40.5333 28 39.9C28 39.1667 28.0833 38.4413 28.25 37.724C28.4167 37.008 28.6667 36.3167 29 35.65C29.2667 35.0833 29.5 34.508 29.7 33.924C29.9 33.3413 30 32.7333 30 32.1C30 31.6 29.942 31.1167 29.826 30.65C29.7087 30.1833 29.55 29.7167 29.35 29.25L28.65 27.75L31.4 26.55L32.25 28.35C32.5167 28.9167 32.7087 29.5167 32.826 30.15C32.942 30.7833 33 31.4333 33 32.1C33 32.8333 32.9167 33.55 32.75 34.25C32.5833 34.95 32.3333 35.6333 32 36.3C31.7333 36.8667 31.5 37.45 31.3 38.05C31.1 38.65 31 39.2667 31 39.9C31 40.3667 31.05 40.8253 31.15 41.276C31.25 41.7253 31.4 42.1667 31.6 42.6L32.35 44.25L29.6 45.45ZM35.6 45.45L34.75 43.55C34.4833 42.9833 34.2913 42.392 34.174 41.776C34.058 41.1587 34 40.5333 34 39.9C34 39.1667 34.0833 38.4413 34.25 37.724C34.4167 37.008 34.6667 36.3167 35 35.65C35.2667 35.0833 35.5 34.508 35.7 33.924C35.9 33.3413 36 32.7333 36 32.1C36 31.6 35.942 31.1167 35.826 30.65C35.7087 30.1833 35.55 29.7167 35.35 29.25L34.65 27.75L37.4 26.55L38.25 28.35C38.5167 28.95 38.7087 29.558 38.826 30.174C38.942 30.7913 39 31.4333 39 32.1C39 32.8333 38.9167 33.55 38.75 34.25C38.5833 34.95 38.3333 35.6333 38 36.3C37.7333 36.8667 37.5 37.45 37.3 38.05C37.1 38.65 37 39.2667 37 39.9C37 40.3667 37.05 40.8253 37.15 41.276C37.25 41.7253 37.4 42.1667 37.6 42.6L38.35 44.25L35.6 45.45ZM41.6 45.45L40.75 43.55C40.4833 42.9833 40.2913 42.392 40.174 41.776C40.058 41.1587 40 40.5333 40 39.9C40 39.1667 40.0833 38.4413 40.25 37.724C40.4167 37.008 40.6667 36.3167 41 35.65C41.2667 35.0833 41.5 34.508 41.7 33.924C41.9 33.3413 42 32.7333 42 32.1C42 31.6 41.942 31.1167 41.826 30.65C41.7087 30.1833 41.55 29.7167 41.35 29.25L40.65 27.75L43.4 26.55L44.25 28.35C44.5167 28.9167 44.7087 29.5167 44.826 30.15C44.942 30.7833 45 31.4333 45 32.1C45 32.8333 44.9167 33.5587 44.75 34.276C44.5833 34.992 44.3333 35.6833 44 36.35C43.7333 36.9167 43.5 37.492 43.3 38.076C43.1 38.6587 43 39.2667 43 39.9C43 40.3667 43.05 40.8253 43.15 41.276C43.25 41.7253 43.4 42.1667 43.6 42.6L44.35 44.25L41.6 45.45Z" fill="#FF6620"/>
</svg>
