<svg width="48" height="49" viewBox="0 0 48 49" fill="none" xmlns="http://www.w3.org/2000/svg">
<path d="M35.2498 33.5H12.7498C10.3444 33.4848 8.02954 32.5809 6.25027 30.9622C4.47099 29.3434 3.35291 27.1241 3.11098 24.7308C2.86905 22.3376 3.52035 19.9394 4.93967 17.9973C6.35898 16.0552 8.44611 14.7064 10.7998 14.21C11.4473 11.1898 13.111 8.48299 15.5133 6.54123C17.9155 4.59947 20.9109 3.54022 23.9998 3.54022C27.0886 3.54022 30.0841 4.59947 32.4863 6.54123C34.8885 8.48299 36.5522 11.1898 37.1998 14.21C39.5535 14.7064 41.6406 16.0552 43.0599 17.9973C44.4792 19.9394 45.1305 22.3376 44.8886 24.7308C44.6467 27.1241 43.5286 29.3434 41.7493 30.9622C39.97 32.5809 37.6552 33.4848 35.2498 33.5ZM23.9998 6.50003C21.4402 6.50258 18.9697 7.43997 17.0527 9.13599C15.1357 10.832 13.9042 13.1699 13.5898 15.71L13.4998 17H12.2098C10.4196 17.0716 8.73113 17.8515 7.5159 19.168C6.30066 20.4845 5.65818 22.2298 5.72979 24.02C5.8014 25.8102 6.58123 27.4987 7.89774 28.7139C9.21424 29.9292 10.9596 30.5716 12.7498 30.5H35.2498C37.04 30.5716 38.7853 29.9292 40.1018 28.7139C41.4183 27.4987 42.1982 25.8102 42.2698 24.02C42.3414 22.2298 41.6989 20.4845 40.4837 19.168C39.2684 17.8515 37.58 17.0716 35.7898 17H34.4998L34.3498 15.77C34.0502 13.2292 32.8332 10.8852 30.9274 9.17827C29.0216 7.47134 26.5582 6.51897 23.9998 6.50003ZM20.9998 45.5C20.7645 45.5028 20.5323 45.4461 20.3248 45.335C19.9715 45.1552 19.7038 44.8428 19.5801 44.4662C19.4564 44.0896 19.4869 43.6793 19.6648 43.325L22.6648 37.325C22.7441 37.1346 22.8618 36.9626 23.0106 36.8197C23.1594 36.6769 23.336 36.5662 23.5295 36.4947C23.723 36.4232 23.9291 36.3923 24.135 36.4041C24.341 36.4159 24.5423 36.47 24.7264 36.563C24.9104 36.6561 25.0733 36.7862 25.2049 36.945C25.3364 37.1039 25.4338 37.2882 25.4909 37.4864C25.548 37.6846 25.5636 37.8925 25.5368 38.097C25.5099 38.3015 25.4411 38.4983 25.3348 38.675L22.3348 44.675C22.2101 44.9224 22.0194 45.1304 21.7838 45.276C21.5481 45.4217 21.2768 45.4992 20.9998 45.5ZM29.9998 45.5C29.7645 45.5028 29.5323 45.4461 29.3248 45.335C28.9715 45.1552 28.7038 44.8428 28.5801 44.4662C28.4564 44.0896 28.4869 43.6793 28.6648 43.325L31.6648 37.325C31.7441 37.1346 31.8618 36.9626 32.0106 36.8197C32.1594 36.6769 32.336 36.5662 32.5295 36.4947C32.723 36.4232 32.9291 36.3923 33.135 36.4041C33.341 36.4159 33.5423 36.47 33.7264 36.563C33.9104 36.6561 34.0733 36.7862 34.2049 36.945C34.3364 37.1039 34.4338 37.2882 34.4909 37.4864C34.548 37.6846 34.5636 37.8925 34.5368 38.097C34.5099 38.3015 34.4411 38.4983 34.3348 38.675L31.3348 44.675C31.2101 44.9224 31.0194 45.1304 30.7838 45.276C30.5481 45.4217 30.2768 45.4992 29.9998 45.5ZM11.9998 45.5C11.7645 45.5028 11.5323 45.4461 11.3248 45.335C10.9715 45.1552 10.7038 44.8428 10.5801 44.4662C10.4564 44.0896 10.4869 43.6793 10.6648 43.325L13.6648 37.325C13.7441 37.1346 13.8618 36.9626 14.0106 36.8197C14.1594 36.6769 14.336 36.5662 14.5295 36.4947C14.723 36.4232 14.9291 36.3923 15.135 36.4041C15.341 36.4159 15.5423 36.47 15.7264 36.563C15.9104 36.6561 16.0733 36.7862 16.2049 36.945C16.3364 37.1039 16.4338 37.2882 16.4909 37.4864C16.548 37.6846 16.5636 37.8925 16.5367 38.097C16.5099 38.3015 16.4411 38.4983 16.3348 38.675L13.3348 44.675C13.2101 44.9224 13.0194 45.1304 12.7838 45.276C12.5481 45.4217 12.2768 45.4992 11.9998 45.5Z" fill="#FF6620"/>
</svg>
