<svg width="48" height="48" viewBox="0 0 48 48" fill="none" xmlns="http://www.w3.org/2000/svg">
<path d="M45.0005 5.12247L42.878 2.99997L25.94 19.9395C25.7967 20.0778 25.6824 20.2434 25.6038 20.4264C25.5252 20.6094 25.4838 20.8062 25.4821 21.0054C25.4804 21.2045 25.5183 21.4021 25.5937 21.5864C25.6691 21.7708 25.7805 21.9382 25.9214 22.0791C26.0622 22.2199 26.2297 22.3313 26.414 22.4067C26.5984 22.4821 26.7959 22.5201 26.9951 22.5184C27.1942 22.5166 27.3911 22.4752 27.5741 22.3966C27.7571 22.318 27.9226 22.2037 28.061 22.0605L33.2435 16.878C33.9763 17.9732 34.4054 19.2433 34.487 20.5586C34.5686 21.8739 34.2997 23.1873 33.7078 24.3647C33.1158 25.5421 32.2221 26.5413 31.1178 27.2605C30.0135 27.9796 28.7382 28.3928 27.422 28.458C26.6898 26.9463 25.608 25.6309 24.2662 24.6206C22.9243 23.6103 21.3611 22.9343 19.706 22.6485C19.442 21.5513 19.4319 20.4084 19.6765 19.3068C19.9211 18.2052 20.414 17.1739 21.1175 16.2916C21.821 15.4093 22.7166 14.6992 23.7361 14.2154C24.7556 13.7316 25.8721 13.4869 27.0005 13.5V10.5C25.4819 10.49 23.9795 10.8117 22.5982 11.4425C21.2169 12.0734 19.9899 12.9982 19.003 14.1523C18.0161 15.3065 17.2931 16.6622 16.8844 18.1247C16.4757 19.5873 16.3913 21.1214 16.637 22.62C15.1108 22.8265 13.6496 23.3696 12.359 24.21C11.8705 22.0196 11.8813 19.7473 12.3905 17.5616C12.8997 15.376 13.8943 13.3329 15.3005 11.5839C16.7068 9.83495 18.4886 8.42489 20.514 7.45826C22.5393 6.49162 24.7563 5.99322 27.0005 5.99998V2.99997C24.1679 2.9943 21.3742 3.65852 18.8474 4.9384C16.3205 6.21829 14.1321 8.07756 12.4608 10.3645C10.7895 12.6514 9.6827 15.3011 9.23069 18.0973C8.77868 20.8935 8.99431 23.757 9.85996 26.454C8.88526 27.6391 8.18501 29.0252 7.80946 30.513C6.1752 31.1406 4.81228 32.3206 3.9573 33.8482C3.10231 35.3759 2.80924 37.1546 3.12895 38.8758C3.44867 40.597 4.36098 42.1519 5.70753 43.2706C7.05408 44.3893 8.74984 45.0011 10.5005 45H25.5005C27.4017 44.9946 29.2297 44.2661 30.6136 42.9624C31.9975 41.6588 32.8336 39.8775 32.9525 37.98C36.4675 36.7391 39.5125 34.4409 41.6695 31.4008C43.8266 28.3607 44.9901 24.7276 45.0005 21C45.0164 16.7418 43.5056 12.619 40.742 9.37947L45.0005 5.12247ZM25.5005 42H10.5005C9.39815 42.0031 8.33318 41.6008 7.50835 40.8695C6.68351 40.1382 6.15643 39.1292 6.02746 38.0344C5.89849 36.9397 6.17665 35.8357 6.80897 34.9328C7.44129 34.0299 8.3836 33.3911 9.45646 33.138L10.4435 32.9025L10.592 31.8975C10.8532 30.1192 11.7453 28.4942 13.1055 27.3192C14.4657 26.1442 16.2031 25.4977 18.0005 25.4977C19.7978 25.4977 21.5353 26.1442 22.8954 27.3192C24.2556 28.4942 25.1477 30.1192 25.409 31.8975L25.5575 32.9025L26.5445 33.1365C27.6188 33.3882 28.5628 34.0267 29.1965 34.9301C29.8301 35.8335 30.109 36.9385 29.98 38.0344C29.8509 39.1302 29.3229 40.1402 28.4967 40.8717C27.6705 41.6031 26.6039 42.0047 25.5005 42ZM42.0005 21C41.9921 24.0023 41.0862 26.9335 39.399 29.417C37.7118 31.9004 35.3205 33.8226 32.5325 34.9365C31.9669 33.3847 30.9008 32.0653 29.5025 31.1865C31.1867 30.7749 32.7427 29.9523 34.0311 28.7921C35.3195 27.6319 36.3003 26.1704 36.8855 24.5383C37.4707 22.9063 37.6422 21.1546 37.3846 19.44C37.127 17.7255 36.4484 16.1015 35.4095 14.7135L38.606 11.5155C40.8094 14.1841 42.0102 17.5393 42.0005 21Z" fill="#FF6620"/>
</svg>
