<svg width="48" height="48" viewBox="0 0 48 48" fill="none" xmlns="http://www.w3.org/2000/svg">
<path d="M24 10C23.4333 10 22.9587 9.808 22.576 9.424C22.192 9.04133 22 8.56667 22 8C22 7.43333 22.192 6.958 22.576 6.574C22.9587 6.19133 23.4333 6 24 6C24.5667 6 25.042 6.19133 25.426 6.574C25.8087 6.958 26 7.43333 26 8C26 8.56667 25.8087 9.04133 25.426 9.424C25.042 9.808 24.5667 10 24 10ZM24 4C23.4333 4 22.9587 3.808 22.576 3.424C22.192 3.04133 22 2.56667 22 2C22 1.43333 22.192 0.958 22.576 0.574C22.9587 0.191333 23.4333 0 24 0C24.5667 0 25.042 0.191333 25.426 0.574C25.8087 0.958 26 1.43333 26 2C26 2.56667 25.8087 3.04133 25.426 3.424C25.042 3.808 24.5667 4 24 4ZM16.8 44C14.6667 42.7333 13 41.0413 11.8 38.924C10.6 36.808 10 34.5 10 32C10 29.3 10.7167 26.808 12.15 24.524C13.5833 22.2413 15.5333 20.5167 18 19.35V14C18 13.4333 18.192 12.958 18.576 12.574C18.9587 12.1913 19.4333 12 20 12H28C28.5667 12 29.042 12.1913 29.426 12.574C29.8087 12.958 30 13.4333 30 14V19.35C32.4333 20.5167 34.3753 22.2413 35.826 24.524C37.2753 26.808 38 29.3 38 32C38 34.4667 37.3913 36.7667 36.174 38.9C34.958 41.0333 33.3 42.7333 31.2 44H16.8ZM18 40H30C31.2667 39.0333 32.25 37.858 32.95 36.474C33.65 35.0913 34 33.6 34 32C34 30.0667 33.492 28.2913 32.476 26.674C31.4587 25.058 30.0667 23.8333 28.3 23L26 21.9V16H22V21.9L19.7 23C17.9333 23.8333 16.542 25.058 15.526 26.674C14.5087 28.2913 14 30.0667 14 32C14 33.6 14.35 35.0913 15.05 36.474C15.75 37.858 16.7333 39.0333 18 40ZM14 6C13.4333 6 12.958 5.808 12.574 5.424C12.1913 5.04133 12 4.56667 12 4C12 3.43333 12.1913 2.958 12.574 2.574C12.958 2.19133 13.4333 2 14 2C14.5667 2 15.042 2.19133 15.426 2.574C15.8087 2.958 16 3.43333 16 4C16 4.56667 15.8087 5.04133 15.426 5.424C15.042 5.808 14.5667 6 14 6ZM34 6C33.4333 6 32.9587 5.808 32.576 5.424C32.192 5.04133 32 4.56667 32 4C32 3.43333 32.192 2.958 32.576 2.574C32.9587 2.19133 33.4333 2 34 2C34.5667 2 35.0413 2.19133 35.424 2.574C35.808 2.958 36 3.43333 36 4C36 4.56667 35.808 5.04133 35.424 5.424C35.0413 5.808 34.5667 6 34 6ZM18 10C17.4333 10 16.9587 9.808 16.576 9.424C16.192 9.04133 16 8.56667 16 8C16 7.43333 16.192 6.958 16.576 6.574C16.9587 6.19133 17.4333 6 18 6C18.5667 6 19.042 6.19133 19.426 6.574C19.8087 6.958 20 7.43333 20 8C20 8.56667 19.8087 9.04133 19.426 9.424C19.042 9.808 18.5667 10 18 10ZM30 10C29.4333 10 28.9587 9.808 28.576 9.424C28.192 9.04133 28 8.56667 28 8C28 7.43333 28.192 6.958 28.576 6.574C28.9587 6.19133 29.4333 6 30 6C30.5667 6 31.042 6.19133 31.426 6.574C31.8087 6.958 32 7.43333 32 8C32 8.56667 31.8087 9.04133 31.426 9.424C31.042 9.808 30.5667 10 30 10Z" fill="#FF6620"/>
</svg>
