<svg width="48" height="49" viewBox="0 0 48 49" fill="none" xmlns="http://www.w3.org/2000/svg">
<path d="M23.9997 14.5C21.3475 14.5 18.804 15.5536 16.9286 17.4289C15.0533 19.3043 13.9997 21.8478 13.9997 24.5C13.9997 27.1522 15.0533 29.6957 16.9286 31.5711C18.804 33.4464 21.3475 34.5 23.9997 34.5C26.6519 34.5 29.1954 33.4464 31.0708 31.5711C32.9461 29.6957 33.9997 27.1522 33.9997 24.5C33.9997 21.8478 32.9461 19.3043 31.0708 17.4289C29.1954 15.5536 26.6519 14.5 23.9997 14.5ZM23.9997 30.5C22.4084 30.5 20.8823 29.8679 19.757 28.7426C18.6318 27.6174 17.9997 26.0913 17.9997 24.5C17.9997 22.9087 18.6318 21.3826 19.757 20.2574C20.8823 19.1321 22.4084 18.5 23.9997 18.5C25.591 18.5 27.1171 19.1321 28.2423 20.2574C29.3675 21.3826 29.9997 22.9087 29.9997 24.5C29.9997 26.0913 29.3675 27.6174 28.2423 28.7426C27.1171 29.8679 25.591 30.5 23.9997 30.5ZM23.9997 4.5L28.7797 11.34C27.2997 10.8 25.6797 10.5 23.9997 10.5C22.3197 10.5 20.6997 10.8 19.2197 11.34L23.9997 4.5ZM6.67969 14.5L14.9997 13.8C13.7584 14.8485 12.7035 16.0995 11.8797 17.5C10.9997 18.98 10.4997 20.5 10.2197 22.08L6.67969 14.5ZM6.71969 34.5L10.2397 26.96C10.8276 30.185 12.5086 33.1091 14.9997 35.24L6.71969 34.5ZM23.9997 44.5L19.1797 37.62C20.6597 38.16 22.2797 38.5 23.9997 38.5C25.6397 38.5 27.2597 38.16 28.7397 37.62M37.9997 26.5V14.5H41.9997V26.5H37.9997ZM37.9997 34.5V30.5H41.9997V34.5" fill="#FF6620"/>
</svg>
