<svg width="48" height="48" viewBox="0 0 48 48" fill="none" xmlns="http://www.w3.org/2000/svg">
<path d="M36.75 40.5C37.9926 40.5 39 39.4926 39 38.25C39 37.0074 37.9926 36 36.75 36C35.5074 36 34.5 37.0074 34.5 38.25C34.5 39.4926 35.5074 40.5 36.75 40.5Z" fill="#FF6620"/>
<path d="M32.25 46.5C33.4926 46.5 34.5 45.4926 34.5 44.25C34.5 43.0074 33.4926 42 32.25 42C31.0074 42 30 43.0074 30 44.25C30 45.4926 31.0074 46.5 32.25 46.5Z" fill="#FF6620"/>
<path d="M23.8015 45.744L21.1975 44.256L25.9135 36H16.915L24.1975 23.256L26.8015 24.744L22.084 33H31.0855L23.8015 45.744Z" fill="#FF6620"/>
<path d="M13.4996 48C13.244 47.9999 12.9927 47.9344 12.7695 47.8099C12.5463 47.6853 12.3586 47.5058 12.2243 47.2884C12.0899 47.071 12.0134 46.8228 12.0019 46.5675C11.9904 46.3122 12.0443 46.0581 12.1586 45.8295L15.1586 39.8295C15.2428 39.6471 15.3628 39.4835 15.5115 39.3484C15.6601 39.2133 15.8344 39.1095 16.024 39.043C16.2136 38.9765 16.4146 38.9488 16.6151 38.9615C16.8155 38.9742 17.0114 39.0271 17.1911 39.1169C17.3708 39.2067 17.5306 39.3317 17.661 39.4845C17.7915 39.6373 17.8899 39.8147 17.9505 40.0062C18.011 40.1978 18.0325 40.3995 18.0136 40.5995C17.9948 40.7995 17.9359 40.9937 17.8406 41.1705L14.8406 47.1705C14.7163 47.4198 14.525 47.6296 14.2881 47.7761C14.0512 47.9227 13.7781 48.0002 13.4996 48ZM37.1996 13.704C36.5604 10.6767 34.9001 7.96104 32.4969 6.01225C30.0937 4.06346 27.0936 2.99994 23.9996 2.99994C20.9055 2.99994 17.9055 4.06346 15.5023 6.01225C13.099 7.96104 11.4387 10.6767 10.7996 13.704C8.56896 14.1576 6.5677 15.3782 5.14335 17.1537C3.71901 18.9293 2.96156 21.1477 3.00256 23.4236C3.04355 25.6994 3.88041 27.8891 5.36778 29.6122C6.85514 31.3353 8.89907 32.483 11.1446 32.856L9.15856 36.8295C9.06321 37.0063 9.00435 37.2005 8.98547 37.4005C8.96659 37.6005 8.98807 37.8022 9.04864 37.9937C9.10921 38.1853 9.20764 38.3627 9.33809 38.5155C9.46853 38.6682 9.62833 38.7933 9.80801 38.8831C9.98768 38.9729 10.1836 39.0258 10.3841 39.0385C10.5845 39.0511 10.7855 39.0234 10.9751 38.957C11.1647 38.8905 11.339 38.7867 11.4876 38.6516C11.6363 38.5164 11.7563 38.3529 11.8406 38.1705L14.8406 32.1705C15.0183 31.815 15.0477 31.4035 14.9222 31.0263C14.7968 30.6492 14.5268 30.3372 14.1716 30.159C13.9621 30.0585 13.7318 30.0092 13.4996 30.015V30H12.7496C11.003 30.0057 9.32235 29.3337 8.06116 28.1255C6.79998 26.9172 6.0566 25.2669 5.98742 23.5217C5.91824 21.7765 6.52866 20.0725 7.69025 18.7683C8.85184 17.464 10.474 16.6611 12.2156 16.5285L13.4396 16.4325L13.5881 15.2145C13.9012 12.6735 15.1326 10.3347 17.0505 8.63872C18.9683 6.94269 21.4401 6.00651 24.0003 6.00651C26.5605 6.00651 29.0323 6.94269 30.9502 8.63872C32.868 10.3347 34.0995 12.6735 34.4126 15.2145L34.5611 16.4325L35.7836 16.5285C37.5251 16.6611 39.1473 17.464 40.3089 18.7683C41.4705 20.0725 42.0809 21.7765 42.0117 23.5217C41.9425 25.2669 41.1991 26.9172 39.938 28.1255C38.6768 29.3337 36.9961 30.0057 35.2496 30H34.4996V33H35.2496C37.6663 33.0025 39.9979 32.107 41.7915 30.4872C43.5851 28.8674 44.7129 26.6389 44.9559 24.2344C45.1989 21.8298 44.5398 19.4208 43.1065 17.4749C41.6732 15.5289 39.568 14.185 37.1996 13.704Z" fill="#FF6620"/>
</svg>
