<svg width="48" height="49" viewBox="0 0 48 49" fill="none" xmlns="http://www.w3.org/2000/svg">
<path fill-rule="evenodd" clip-rule="evenodd" d="M23.9994 38.2143C31.6086 38.2143 37.7137 32.1686 37.7137 24.5617C37.7137 16.9526 31.6086 10.7857 23.9994 10.7857C16.3903 10.7857 10.2852 16.9526 10.2852 24.5617C10.2852 32.1686 16.3903 38.2143 23.9994 38.2143Z" stroke="#FF6620" stroke-width="2.28571" stroke-linecap="round" stroke-linejoin="round"/>
<path d="M24 32.5C28.4183 32.5 32 28.9183 32 24.5C32 20.0817 28.4183 16.5 24 16.5C19.5817 16.5 16 20.0817 16 24.5C16 28.9183 19.5817 32.5 24 32.5Z" fill="#FF6620"/>
<path d="M5.71387 24.5H10.2853M37.7139 24.5H42.2853M23.9996 6.21429V10.7857M23.9996 38.2143V42.7857" stroke="#FF6620" stroke-width="2.28571" stroke-linecap="round" stroke-linejoin="round"/>
</svg>
