<svg width="48" height="49" viewBox="0 0 48 49" fill="none" xmlns="http://www.w3.org/2000/svg">
<path d="M39 20H45V23H39V20ZM34.5 11.879L38.742 7.637L40.863 9.758L36.621 14L34.5 11.879ZM34.5 31.121L36.621 29L40.863 33.242L38.742 35.363L34.5 31.121ZM25.5 3.5H28.5V9.5H25.5V3.5ZM27 12.5C26.4971 12.5033 25.9954 12.5484 25.5 12.635V15.713C25.9889 15.5782 26.493 15.5066 27 15.5C28.5913 15.5 30.1174 16.1321 31.2426 17.2574C32.3679 18.3826 33 19.9087 33 21.5C33 23.0913 32.3679 24.6174 31.2426 25.7426C30.1174 26.8679 28.5913 27.5 27 27.5V30.5C29.387 30.5 31.6761 29.5518 33.364 27.864C35.0518 26.1761 36 23.8869 36 21.5C36 19.1131 35.0518 16.8239 33.364 15.136C31.6761 13.4482 29.387 12.5 27 12.5ZM15 30.776V11H12V30.776C10.9992 31.1298 10.1557 31.8261 9.61856 32.7417C9.08145 33.6573 8.88531 34.7334 9.06482 35.7796C9.24432 36.8258 9.78792 37.7749 10.5995 38.4592C11.4111 39.1434 12.4385 39.5186 13.5 39.5186C14.5615 39.5186 15.5889 39.1434 16.4005 38.4592C17.2121 37.7749 17.7557 36.8258 17.9352 35.7796C18.1147 34.7334 17.9186 33.6573 17.3815 32.7417C16.8443 31.8261 16.0008 31.1298 15 30.776Z" fill="#FF6620"/>
<path d="M13.5003 45.5C11.4333 45.5023 9.41164 44.8939 7.68924 43.7511C5.96684 42.6083 4.62047 40.9821 3.8192 39.0767C3.01793 37.1713 2.79748 35.0716 3.18553 33.0413C3.57358 31.011 4.55284 29.1406 6.00033 27.665V11C6.00033 9.01088 6.7905 7.10322 8.19703 5.6967C9.60355 4.29018 11.5112 3.5 13.5003 3.5C15.4895 3.5 17.3971 4.29018 18.8036 5.6967C20.2102 7.10322 21.0003 9.01088 21.0003 11V27.665C22.4478 29.1406 23.4271 31.011 23.8151 33.0413C24.2032 35.0716 23.9827 37.1713 23.1815 39.0767C22.3802 40.9821 21.0338 42.6083 19.3114 43.7511C17.589 44.8939 15.5674 45.5023 13.5003 45.5ZM13.5003 6.5C12.3072 6.50119 11.1633 6.97568 10.3197 7.81934C9.47601 8.66299 9.00152 9.80689 9.00033 11V28.9745L8.50233 29.423C7.36965 30.4354 6.5711 31.7679 6.2124 33.2441C5.85369 34.7203 5.95174 36.2706 6.49356 37.6899C7.03538 39.1091 7.99542 40.3304 9.24661 41.192C10.4978 42.0536 11.9812 42.515 13.5003 42.515C15.0195 42.515 16.5028 42.0536 17.754 41.192C19.0052 40.3304 19.9653 39.1091 20.5071 37.6899C21.0489 36.2706 21.147 34.7203 20.7883 33.2441C20.4296 31.7679 19.631 30.4354 18.4983 29.423L18.0003 28.9745V11C17.9991 9.80689 17.5246 8.66299 16.681 7.81934C15.8373 6.97568 14.6934 6.50119 13.5003 6.5Z" fill="#FF6620"/>
</svg>
