<svg width="48" height="48" viewBox="0 0 48 48" fill="none" xmlns="http://www.w3.org/2000/svg">
<path d="M30 6H40.5V9H30V6ZM30 15H45V18H30V15ZM30 24H40.5V27H30V24ZM18 34.5C18 35.6935 17.5259 36.8381 16.682 37.682C15.8381 38.5259 14.6935 39 13.5 39C12.3065 39 11.1619 38.5259 10.318 37.682C9.47411 36.8381 9 35.6935 9 34.5H18Z" fill="#FF6620"/>
<path d="M45.0005 33H23.8805C23.5616 30.7994 22.5533 28.7566 21.0005 27.165V10.5C21.0005 8.51088 20.2103 6.60322 18.8038 5.1967C17.3972 3.79018 15.4896 3 13.5005 3C11.5113 3 9.60368 3.79018 8.19716 5.1967C6.79064 6.60322 6.00046 8.51088 6.00046 10.5V27.165C4.84016 28.349 3.97693 29.7911 3.48149 31.3731C2.98605 32.9551 2.87252 34.632 3.15018 36.2663C3.42785 37.9007 4.08882 39.446 5.07892 40.7756C6.06903 42.1052 7.36009 43.1813 8.84631 43.9157C10.3325 44.65 11.9716 45.0218 13.6292 45.0005C15.2869 44.9792 16.9159 44.5655 18.3827 43.7931C19.8496 43.0208 21.1126 41.9119 22.0682 40.5573C23.0238 39.2027 23.6449 37.6409 23.8805 36H45.0005V33ZM13.5005 42C11.9821 42.0022 10.4989 41.5428 9.24754 40.6828C7.9962 39.8227 7.03582 38.6027 6.49374 37.1843C5.95165 35.766 5.85348 34.2164 6.21222 32.741C6.57096 31.2656 7.36967 29.9341 8.50246 28.923L9.00046 28.4745V10.5C9.00046 9.30653 9.47457 8.16193 10.3185 7.31802C11.1624 6.47411 12.307 6 13.5005 6C14.6939 6 15.8385 6.47411 16.6824 7.31802C17.5264 8.16193 18.0005 9.30653 18.0005 10.5V28.4745L18.4985 28.923C19.6312 29.9341 20.43 31.2656 20.7887 32.741C21.1474 34.2164 21.0493 35.766 20.5072 37.1843C19.9651 38.6027 19.0047 39.8227 17.7534 40.6828C16.502 41.5428 15.0188 42.0022 13.5005 42Z" fill="#FF6620"/>
</svg>
