<svg width="48" height="48" viewBox="0 0 48 48" fill="none" xmlns="http://www.w3.org/2000/svg">
<path d="M7.5 3C8.5 3 9 3.5 9 4.5V43.5C9 44.5 8.5 45 7.5 45C6.5 45 6 44.5 6 43.5V4.5C6 3.5 6.5 3 7.5 3ZM27 19.623L33 19.08V7.92L27 7.38V19.62V19.623ZM24 19.896V7.104L15 6.285V7.5H12V3L40.908 5.628C42.0263 5.72981 43.0661 6.24606 43.8233 7.07536C44.5804 7.90465 45.0001 8.98706 45 10.11V16.89C45.0001 18.0129 44.5804 19.0953 43.8233 19.9246C43.0661 20.7539 42.0263 21.2702 40.908 21.372L12 24V10.5H15V20.715L24 19.896ZM36 18.807L40.635 18.387C41.0085 18.3533 41.3557 18.1808 41.6084 17.9038C41.8611 17.6267 42.0008 17.265 42 16.89V10.11C42 9.73553 41.86 9.3746 41.6074 9.09814C41.3548 8.82168 41.0079 8.6497 40.635 8.616L36 8.196V18.807Z" fill="#FF6620"/>
</svg>
