<svg width="48" height="48" viewBox="0 0 48 48" fill="none" xmlns="http://www.w3.org/2000/svg">
<path d="M43.974 12.0765L16.974 3.07651C16.744 2.99995 16.4988 2.98029 16.2595 3.01922C16.0202 3.05814 15.7939 3.15449 15.6 3.30001L6 10.5V3.00001H3V45H6V16.5L15.6 23.7C15.7939 23.8455 16.0202 23.9419 16.2595 23.9808C16.4988 24.0197 16.744 24.0001 16.974 23.9235L43.974 14.9235C44.2725 14.8238 44.532 14.6328 44.716 14.3775C44.8999 14.1221 44.9988 13.8154 44.9988 13.5008C44.9988 13.1861 44.8999 12.8794 44.716 12.624C44.532 12.3687 44.2725 12.1777 43.974 12.078V12.0765ZM15 19.5L7.0005 13.5L15 7.50001V19.5ZM21 19.419L18 20.4195V6.58051L21 7.58101V19.419ZM27 17.4195L24 18.4185V8.58151L27 9.58051V17.4195ZM30 16.419V10.581L38.757 13.5L30 16.419Z" fill="#FF6620"/>
<path d="M30 33C30 31.4087 29.3679 29.8826 28.2426 28.7574C27.1174 27.6321 25.5913 27 24 27C22.4087 27 20.8826 27.6321 19.7574 28.7574C18.6321 29.8826 18 31.4087 18 33H21C21 32.4067 21.1759 31.8266 21.5056 31.3333C21.8352 30.8399 22.3038 30.4554 22.8519 30.2284C23.4001 30.0013 24.0033 29.9419 24.5853 30.0576C25.1672 30.1734 25.7018 30.4591 26.1213 30.8787C26.5409 31.2982 26.8266 31.8328 26.9424 32.4147C27.0581 32.9967 26.9987 33.5999 26.7716 34.1481C26.5446 34.6962 26.1601 35.1648 25.6667 35.4944C25.1734 35.8241 24.5933 36 24 36H12V39H24C25.5907 38.998 27.1157 38.3652 28.2404 37.2404C29.3652 36.1157 29.998 34.5907 30 33Z" fill="#FF6620"/>
<path d="M39 33C37.4093 33.002 35.8843 33.6348 34.7596 34.7596C33.6348 35.8843 33.002 37.4093 33 39H36C36 38.4067 36.1759 37.8266 36.5056 37.3333C36.8352 36.8399 37.3038 36.4554 37.8519 36.2284C38.4001 36.0013 39.0033 35.9419 39.5853 36.0576C40.1672 36.1734 40.7018 36.4591 41.1213 36.8787C41.5409 37.2982 41.8266 37.8328 41.9424 38.4147C42.0581 38.9967 41.9987 39.5999 41.7716 40.1481C41.5446 40.6962 41.1601 41.1648 40.6667 41.4944C40.1734 41.8241 39.5933 42 39 42H18V45H39C40.5913 45 42.1174 44.3679 43.2426 43.2426C44.3679 42.1174 45 40.5913 45 39C45 37.4087 44.3679 35.8826 43.2426 34.7574C42.1174 33.6321 40.5913 33 39 33Z" fill="#FF6620"/>
</svg>
