<svg width="48" height="48" viewBox="0 0 48 48" fill="none" xmlns="http://www.w3.org/2000/svg">
<path d="M43.72 25C42.2738 23.297 40.2232 22.2215 38 22C38 18.1 36.64 14.8 33.92 12.08C31.2 9.36 27.9 8 24 8C20.84 8 18 8.94 15.5 10.86C13 12.78 11.34 15.24 10.5 18.3C8 18.86 5.92 20.16 4.34 22.2C2.76 24.24 2 26.56 2 29.16C2 32.18 3.08 34.76 5.22 36.86C7.38 39 10 40 13 40H37C39.5 40 41.62 39.12 43.38 37.38C45.12 35.62 46 33.5 46 31C46 28.7 45.24 26.7 43.72 25ZM40.54 34.54C39.58 35.52 38.4 36 37 36H13C11.06 36 9.42 35.32 8.06 34C6.68 32.58 6 30.94 6 29C6 27.06 6.68 25.42 8.06 24.06C9.42 22.68 11.06 22 13 22H14C14 19.24 15 16.88 16.92 14.92C18.88 13 21.24 12 24 12C26.76 12 29.12 13 31.08 14.92C33 16.88 34 19.24 34 22V26H37C38.4 26 39.58 26.48 40.54 27.46C41.5 28.44 42 29.6 42 31C42 32.4 41.52 33.58 40.54 34.54ZM22 30H26V34H22V30ZM22 14H26V26H22V14Z" fill="#FF6620"/>
</svg>
